<?xml version="1.0" encoding="UTF-8"?>
<svg id="Layer_2" data-name="Layer 2" xmlns="http://www.w3.org/2000/svg" viewBox="0 0 301.71 52.74">
  <defs>
    <style>
      .cls-1 {
        fill: #efc5ce;
      }

      .cls-1, .cls-2, .cls-3, .cls-4, .cls-5, .cls-6, .cls-7, .cls-8, .cls-9, .cls-10, .cls-11, .cls-12, .cls-13, .cls-14, .cls-15, .cls-16, .cls-17, .cls-18, .cls-19, .cls-20, .cls-21 {
        stroke-width: 0px;
      }

      .cls-2 {
        fill: #ec846c;
      }

      .cls-3 {
        fill: #3c2829;
      }

      .cls-4 {
        fill: #f4e9e8;
      }

      .cls-5 {
        fill: #eef2f5;
      }

      .cls-6 {
        fill: #29a6d6;
      }

      .cls-7 {
        fill: #f0c5cf;
      }

      .cls-8, .cls-18 {
        fill: #c60024;
      }

      .cls-9 {
        fill: #f7eaea;
      }

      .cls-10 {
        fill: #ce857a;
      }

      .cls-11 {
        fill: #f4e8e8;
      }

      .cls-12 {
        fill: #e0c1c8;
      }

      .cls-13 {
        fill: #e7c4cc;
      }

      .cls-14 {
        fill: #c52127;
      }

      .cls-15 {
        fill: #060505;
      }

      .cls-16 {
        fill: #de836e;
      }

      .cls-17, .cls-21 {
        fill: #050303;
      }

      .cls-18, .cls-21 {
        opacity: .93;
      }

      .cls-19 {
        fill: #1d2d3e;
      }

      .cls-20 {
        fill: #2b282c;
      }
    </style>
  </defs>
  <g id="Layer_1-2" data-name="Layer 1">
    <path class="cls-17" d="M71,2.59c3.59,0,7.18.04,10.77-.02,1.61-.03,2.34.69,2.34,2.23,0,3,0,6.01,0,9.01,0,.66-.09,1.36-.71,1.63-1.52.67-1.56,1.9-1.54,3.28.05,3.94.03,7.89.01,11.83,0,1.88.13,3.73.58,5.58.47,1.95,1.46,2.88,3.17,2.77,1.63-.11,2.66-1.26,2.73-3.23.1-2.69.15-5.38.17-8.07.03-3.25,0-6.51.01-9.77,0-1.01-.14-1.88-1.29-2.21-.84-.24-.92-.93-.92-1.65,0-3.19.02-6.39,0-9.58,0-1.25.53-1.82,1.81-1.81,5.42.02,10.83.02,16.25,0,1.32,0,1.95.5,1.92,1.9-.06,3.13-.06,6.26,0,9.39.03,1.26-.49,1.93-1.71,1.94-1.74,0-2,.98-2.01,2.45-.04,6.32.4,12.66-.3,18.95-.82,7.33-5.6,12.56-13.35,14.24-4.81,1.05-9.5.89-14.21-.16-7.3-1.63-11.94-6.4-12.91-14.24-.72-5.85-.28-11.76-.32-17.64-.01-1.92.09-3.71-2.61-3.81-.81-.03-1.06-.77-1.06-1.53,0-3.32.01-6.64,0-9.95,0-1.46.99-1.54,2.05-1.54,3.72,0,7.43,0,11.15,0ZM91.31,24.94s-.03,0-.04,0c0,3.1.18,6.22-.06,9.3-.2,2.54-.35,5.31-3.15,6.72-3.96,2-8.24-.75-8.59-5.38-.5-6.5-.19-13.01-.29-19.51-.02-1.22.03-2.38,1.59-2.75.54-.13.62-.73.62-1.25,0-1.8,0-3.6,0-5.39.01-1.11-.53-1.53-1.62-1.53-5.8.02-11.6,0-17.41,0-1.15,0-1.73.58-1.73,1.71,0,1.49.03,2.98-.01,4.46-.04,1.35.43,2.16,1.92,2.11,1.13-.04,1.55.55,1.5,1.63-.04.87-.02,1.74,0,2.6.18,6.98-.58,14.01.99,20.93.74,3.28,2.37,6,5.27,7.78,4.38,2.69,9.3,3.04,14.25,2.73,3.82-.23,7.48-1.16,10.54-3.73,3.75-3.15,4.42-7.52,4.59-11.92.24-5.82.07-11.66.06-17.49,0-1.43.17-2.64,2.08-2.56,1.07.04,1.59-.61,1.6-1.64.02-1.67.03-3.35,0-5.02-.02-1.05-.62-1.59-1.66-1.59-3.68,0-7.36,0-11.04,0-1.23,0-1.79.6-1.75,1.86.06,1.55.04,3.1,0,4.65-.02.9.22,1.58,1.14,1.9,1,.34,1.21,1.1,1.2,2.06-.03,3.1-.01,6.2-.01,9.3Z"/>
    <path class="cls-21" d="M45.74,4.08c4.08,1.46,6.85,4.53,7.95,8.67,1.55,5.88-.33,10.97-4.55,15.23-.78.79-.9,1.4-.34,2.3,1.38,2.2,2.72,4.44,4.09,6.64.48.77,1.27,1.04,2.14,1.05,1.66.01,2.22.91,2.19,2.44-.04,2.67,0,5.34-.01,8-.01,2.32-.22,2.53-2.5,2.54-4.1,0-8.21-.2-12.29.07-2.77.18-4.13-.91-5.32-3.25-2.46-4.85-5.25-9.53-7.84-14.31-1-1.86-2.71-1.44-4.05-1.1-1.92.49-.88,2.35-1.06,3.61-.2,1.35.56,1.92,1.9,2.03,1.16.09,1.82.74,1.81,2.02-.04,3.05-.03,6.1,0,9.15.01,1.3-.54,1.79-1.85,1.79-7.87-.03-15.75-.03-23.62,0-1.55,0-2.21-.61-2.18-2.16.06-2.86.08-5.72,0-8.57-.04-1.54.6-2.27,2.11-2.26,1.33.01,1.79-.66,1.79-1.9-.02-6.35-.01-12.7-.02-19.06,0-1.35-.29-2.42-2.03-2.3-1.45.1-1.86-.71-1.84-2.02.05-2.67,0-5.34,0-8,0-2.41.14-2.55,2.65-2.55,10.24,0,20.48.01,30.73,0,.6,0,7.1.13,12.12,1.93ZM18.68,4.75c-4.49,0-8.98.02-13.48-.02-1.24-.01-1.87.38-1.82,1.7.06,1.67.04,3.34,0,5.01-.02,1.08.41,1.62,1.54,1.58,1.56-.06,2.13.97,2.14,2.26.04,7.49.05,14.98,0,22.47,0,1.27-.57,2.32-2.14,2.25-1.12-.05-1.57.47-1.55,1.57.04,1.61.03,3.22,0,4.83-.02,1.07.42,1.6,1.55,1.6,6.36-.01,12.73-.01,19.09,0,1.09,0,1.6-.5,1.59-1.59-.02-1.55-.04-3.1,0-4.64.03-1.12-.32-1.78-1.58-1.75-1.46.03-1.93-.85-1.92-2.16.02-2.04.03-4.09,0-6.13-.02-1.43.72-2.02,2.07-2.03,1.31-.01,2.62.04,3.93-.01,1.3-.06,2.1.57,2.68,1.64,2.67,4.93,5.34,9.87,8.03,14.79.54.99,1.1,1.92,2.5,1.9,3.81-.04,7.61-.04,11.42,0,1.15,0,1.57-.57,1.58-1.59.01-1.67,0-3.34,0-5.01,0-.79-.26-1.41-1.15-1.34-1.12.08-1.72-.52-2.24-1.35-1.93-3.09-3.85-6.18-5.79-9.26-.5-.79-.48-1.42.23-2.13,1.25-1.25,2.53-2.44,3.68-3.81,3.96-4.72,2.47-11.56-1.62-14.93-3.36-2.77-7.47-3.09-11.57-3.47-5.72-.53-11.46-.29-17.19-.35Z"/>
    <path class="cls-8" d="M165.72,28.58c0-4.29.01-8.58-.01-12.86,0-.9.32-2.03-1.05-2.32-1.37-.29-1.91.57-2.33,1.69-4.08,10.62-8.21,21.21-12.24,31.85-.47,1.23-1.07,1.68-2.35,1.56-1.79-.18-3.98.68-5.28-.35-1.19-.95-1.49-3.03-2.12-4.63-3.66-9.25-7.3-18.5-10.96-27.75-.26-.66-.46-1.38-1.1-1.8-.55-.36-1.15-.29-1.72,0-.71.35-.8.98-.77,1.67.15,4.16.19,8.34.48,12.49.31,4.4.31,8.81.24,13.21-.03,1.83.53,2.85,2.46,2.94.42.02.83.16,1.24.23,1.9.35,2.6,1.58,2,3.4-.22.65-.69.57-1.15.57-5.44,0-10.87,0-16.31,0-.66,0-1.31-.06-1.17-.91.16-.97-.63-2.18.66-2.89.15-.08.34-.11.52-.14,4.39-.7,3.77-.5,3.78-4.82.03-9.05-.03-18.11.04-27.16.02-1.78-.54-2.56-2.36-2.84-1-.16-2.73.35-2.71-1.76.03-2.43-.07-2.43,2.39-2.43,5.32,0,10.63.05,15.95-.04,1.42-.02,2.11.36,2.62,1.72,3.28,8.81,6.66,17.59,10.04,26.38.36.94.43,2.28,1.88,2.29,1.57,0,1.82-1.32,2.24-2.43,3.27-8.82,6.56-17.63,9.8-26.47.37-1.02.81-1.5,2.02-1.49,5.62.07,11.23.03,16.85.03.79,0,1.75-.11,1.5,1.1-.2.99.9,2.47-1.11,2.86-4.24.83-3.73.23-3.74,4.67-.02,8.93,0,17.87,0,26.8,0,2.86,0,2.88,3.05,3.46.97.18,1.86.18,1.86,1.6,0,2.45.09,2.45-2.4,2.45-4.83,0-9.66,0-14.5-.01-.71,0-1.8.32-1.64-.97.13-1.01-.8-2.41,1.11-2.89,4.16-1.05,4.15-1.11,4.15-5.3,0-3.57,0-7.15,0-10.72.05,0,.1,0,.15,0Z"/>
    <path class="cls-17" d="M165.72,28.58s-.1,0-.15,0c0,3.57,0,7.15,0,10.72,0,4.19.01,4.24-4.15,5.3-1.91.48-.98,1.87-1.11,2.89-.16,1.29.93.97,1.64.97,4.83.02,9.66.01,14.5.01,2.48,0,2.4,0,2.4-2.45,0-1.42-.89-1.42-1.86-1.6-3.06-.58-3.05-.6-3.05-3.46,0-8.93-.01-17.87,0-26.8,0-4.44-.5-3.84,3.74-4.67,2.01-.39.91-1.87,1.11-2.86.25-1.22-.71-1.1-1.5-1.1-5.62,0-11.24.04-16.85-.03-1.21-.02-1.65.47-2.02,1.49-3.24,8.83-6.52,17.65-9.8,26.47-.41,1.11-.67,2.44-2.24,2.43-1.46,0-1.52-1.35-1.88-2.29-3.37-8.78-6.75-17.56-10.04-26.38-.51-1.37-1.19-1.75-2.62-1.72-5.31.09-10.63.04-15.95.04-2.47,0-2.36,0-2.39,2.43-.03,2.12,1.71,1.61,2.71,1.76,1.82.28,2.37,1.07,2.36,2.84-.08,9.05-.02,18.11-.04,27.16-.01,4.32.61,4.11-3.78,4.82-.18.03-.37.05-.52.14-1.29.71-.5,1.91-.66,2.89-.14.86.51.92,1.17.91,5.44,0,10.87,0,16.31,0,.46,0,.94.08,1.15-.57.6-1.82-.09-3.05-2-3.4-.41-.08-.82-.21-1.24-.23-1.93-.1-2.49-1.11-2.46-2.94.07-4.4.07-8.81-.24-13.21-.29-4.16-.33-8.33-.48-12.49-.03-.69.07-1.32.77-1.67.57-.28,1.17-.35,1.72,0,.64.42.84,1.14,1.1,1.8,3.65,9.25,7.3,18.51,10.96,27.75.63,1.6.93,3.67,2.12,4.63,1.29,1.03,3.49.17,5.28.35,1.28.13,1.88-.33,2.35-1.56,4.04-10.63,8.17-21.23,12.24-31.85.43-1.11.96-1.97,2.33-1.69,1.37.29,1.05,1.42,1.05,2.32.02,4.29.01,8.58.01,12.86ZM181.6,4.42c0,1.31,0,4.44,0,6.23,0,.73-.55,1.34-1.29,1.41-.69.06-1.5.16-2.04.31-1,.27-1.44.57-1.42,1.72.09,4.28.04,8.56.04,12.84,0,4.34.02,8.68-.02,13.02,0,1.02.14,1.52,1.36,1.77.64.13,1.35.23,2.04.29.76.07,1.33.71,1.33,1.46v6.25c0,.88-.72,1.59-1.61,1.58-6.64-.07-13.29.09-19.93.12-2.62.01-2.74-.12-2.74-2.75,0-1.4.07-2.8-.02-4.19-.08-1.21.76-2.3,1.97-2.51,3.22-.56,3.21-.61,3.21-3.76,0-4.94,0-9.87,0-14.86-.71,1.02-.92,2.29-1.37,3.46-2.97,7.71-5.99,15.41-8.96,23.12-.47,1.22-1.27,1.67-2.83,1.44-2.28-.34-4.59-.29-6.87.01-1.5.2-2.3-.23-2.77-1.42-3.17-8.08-6.35-16.15-9.55-24.22-.18-.44-.14-1.07-.9-1.26-.55,1.61.1,3.14.14,4.68.1,3.63.21,7.26.22,10.9,0,1.03.29,1.41,1.37,1.6,4.74.84,4.22.07,4.23,4.93,0,5.46.5,4.82-4.98,4.83-5.74.02-11.48.01-17.22,0-2.17,0-2.42-.25-2.43-2.35-.01-1.61.07-3.22-.02-4.82-.08-1.43.59-2.02,1.93-2.27,3.1-.59,3.09-.62,3.09-3.71,0-7.98-.05-15.97.05-23.95.02-1.42-.51-1.86-1.75-1.99-.6-.06-1.18-.23-1.77-.35-1.09-.21-1.59-.86-1.53-2.02.09-1.68.21-3.37.03-5.04-.2-1.87.51-2.25,2.61-2.27,8.78-.11,13.09-.07,20.51-.01,2.01.01,2.45.62,2.9,1.8,3.03,8,6.07,16,9.12,23.99.21.54.27,1.16.87,1.66,1.76-4.74,3.5-9.42,5.24-14.1,1.44-3.87,2.94-7.73,4.32-11.62.38-1.07,1.38-1.79,2.52-1.78,6.89.01,13.86.15,20.88.03,1.67-.03,2.04.7,2.04,1.8Z"/>
    <path class="cls-17" d="M249.29,29.03c2.73-8.02,5.52-16.03,8.16-24.09.57-1.75,1.32-2.55,3.29-2.36,1.97.19,3.99.13,5.98.01,1.41-.08,2,.49,2.42,1.76,2.71,8.12,5.49,16.21,8.25,24.31.15.44.34.87.59,1.52,1.48-5.79,2.88-11.36,4.34-16.92.21-.82-.12-.87-.76-.95-4.83-.57-4.14-.21-4.15-4.9-.01-5.53-.6-4.76,4.76-4.79,5.8-.03,11.6.03,17.4-.03,1.58-.02,2.2.57,2.15,2.09-.06,1.79-.04,3.57,0,5.36.02,1.25-.56,2.02-1.81,1.9-3-.27-4.06,1.15-4.83,3.94-3.05,11.06-6.48,22.01-9.64,33.04-.56,1.96-1.45,2.7-3.52,2.55-2.59-.18-5.2-.13-7.79-.01-1.58.07-2.35-.45-2.87-1.97-2.23-6.65-4.58-13.26-6.92-19.87-.21-.59-.22-1.31-.89-1.78-2.58,7.17-5.21,14.29-7.68,21.46-.57,1.66-1.41,2.23-3.12,2.16-2.9-.11-5.8-.09-8.7,0-1.47.04-2.11-.51-2.5-1.91-3.32-11.91-6.73-23.8-10.07-35.7-.31-1.1-.71-1.55-1.98-1.68-4.56-.47-4.27.51-4.26-4.67,0-1.13,0-2.26.01-3.4,0-1.03.52-1.5,1.58-1.49,7.19.02,14.38.01,21.57,0,1.09,0,1.54.59,1.55,1.55.03,2.03.02,4.05,0,6.08,0,1.44-1.02,1.65-2.19,1.82-2.78.39-2.77.43-2.11,3.09,1.07,4.26,2.15,8.53,3.21,12.8.1.4.09.84.53,1.07ZM237.52,5.52c-2.36,0-4.71,0-7.07,0-2.47,0-2.41,0-2.35,2.43.05,2.13,1.85,1.28,2.69,1.33,1.94.11,2.69.96,3.18,2.7,3.23,11.63,6.57,23.24,9.81,34.87.36,1.28.89,1.74,2.22,1.64,1.62-.11,3.27-.15,4.89,0,1.58.15,2.17-.52,2.65-1.91,2.72-7.87,5.54-15.71,8.33-23.57.32-.91.82-1.67,1.88-1.66,1.09,0,1.47.84,1.74,1.76,1.91,6.58,4.38,12.97,6.6,19.44.65,1.91.89,4.38,2.25,5.51,1.46,1.22,4.06.18,6.14.42,1.51.17,2.05-.44,2.45-1.82,3.22-11.08,6.59-22.12,9.75-33.22.77-2.7,1.73-4.51,4.97-4.33,1.92.11.86-1.55,1.08-2.41.23-.93-.31-1.21-1.23-1.21-5.31.03-10.63.01-15.94.02-.4,0-.84-.1-1.1.38-.82,1.51.19,3.35,1.95,3.53.3.03.6.03.9.07,2.57.34,2.89.8,2.26,3.25-.93,3.63-1.87,7.26-2.8,10.89-.99,3.86-1.97,7.72-2.95,11.58-.21.8-.57,1.44-1.57,1.43-.93,0-1.43-.52-1.73-1.31-.19-.5-.35-1.01-.52-1.52-2.75-8.11-5.5-16.23-8.26-24.34-1.35-3.99-1.36-3.92-5.58-4-1.36-.02-1.83.47-2.23,1.67-3.06,9.2-6.35,18.33-9.1,27.63-.25.85-.59,1.56-1.67,1.57-1.07.02-1.5-.65-1.72-1.52-1.94-7.61-3.86-15.22-5.78-22.83-.31-1.25.06-2.12,1.48-2.31.9-.12,1.79-.22,2.68-.38,1.84-.33.89-1.77,1.07-2.74.2-1.08-.59-1.07-1.37-1.07-2.66.01-5.31,0-7.97,0Z"/>
    <path class="cls-8" d="M203.55,48.47c-5.37,0-10.75,0-16.12-.01-.71,0-1.79.32-1.63-.97.13-1.07-.83-2.62,1.24-2.98,4.22-.72,3.74-.31,3.75-4.65.01-9.11-.04-18.22.04-27.33.02-1.8-.6-2.53-2.38-2.82-.92-.15-2.48.37-2.68-1.39-.29-2.66-.19-2.79,2.53-2.79,10.39,0,20.77.03,31.16-.03,1.39,0,1.9.3,1.82,1.75-.13,2.32-.08,4.64-.02,6.96.03,1.04-.23,1.6-1.39,1.45-.36-.05-.72,0-1.09,0-3.01,0-3.04,0-3.47-2.88-.19-1.28-.82-1.87-2.17-1.85-3.86.04-7.73.03-11.59,0-1.41,0-2.14.54-2.12,2.01.03,2.8.04,5.6,0,8.4-.02,1.46.68,2.03,2.1,2.03,3.86-.02,7.73.04,11.59-.03,1.24-.02,1.65.3,1.65,1.58-.01,4.22.04,4.22-4.18,4.22-3.02,0-6.04.03-9.06-.01-1.44-.02-2.12.56-2.1,2,.03,3.33.02,6.67,0,10,0,1.32.6,1.96,1.98,1.95,4.17-.03,8.33-.02,12.5,0,1.27,0,1.84-.51,1.95-1.78.27-3.18.31-3.18,3.45-3.18q2.4,0,2.41,2.42c0,2.02-.09,4.05.03,6.07.09,1.46-.33,1.94-1.88,1.92-5.43-.09-10.87-.04-16.3-.04Z"/>
    <path class="cls-8" d="M237.52,5.52c2.66,0,5.31,0,7.97,0,.78,0,1.57-.02,1.37,1.07-.18.97.77,2.41-1.07,2.74-.89.16-1.79.26-2.68.38-1.42.19-1.79,1.07-1.48,2.31,1.92,7.61,3.84,15.22,5.78,22.83.22.86.65,1.53,1.72,1.52,1.08-.02,1.42-.72,1.67-1.57,2.74-9.3,6.03-18.43,9.1-27.63.4-1.2.87-1.69,2.23-1.67,4.21.08,4.22,0,5.58,4,2.76,8.11,5.51,16.23,8.26,24.34.17.51.34,1.02.52,1.52.29.79.8,1.31,1.73,1.31,1,0,1.36-.63,1.57-1.43.99-3.86,1.97-7.72,2.95-11.58.93-3.63,1.87-7.26,2.8-10.89.63-2.45.31-2.91-2.26-3.25-.3-.04-.6-.04-.9-.07-1.76-.18-2.77-2.02-1.95-3.53.26-.48.71-.38,1.1-.38,5.31,0,10.63.01,15.94-.02.92,0,1.46.28,1.23,1.21-.21.86.84,2.52-1.08,2.41-3.24-.18-4.21,1.63-4.97,4.33-3.15,11.1-6.53,22.14-9.75,33.22-.4,1.38-.94,1.99-2.45,1.82-2.08-.23-4.67.8-6.14-.42-1.36-1.13-1.6-3.61-2.25-5.51-2.22-6.48-4.69-12.87-6.6-19.44-.27-.92-.65-1.75-1.74-1.76-1.05,0-1.55.75-1.88,1.66-2.78,7.85-5.61,15.69-8.33,23.57-.48,1.39-1.07,2.06-2.65,1.91-1.62-.15-3.26-.12-4.89,0-1.33.09-1.86-.37-2.22-1.64-3.24-11.63-6.58-23.23-9.81-34.87-.48-1.74-1.23-2.6-3.18-2.7-.84-.05-2.63.81-2.69-1.33-.06-2.43-.12-2.43,2.35-2.43,2.36,0,4.71,0,7.07,0Z"/>
    <path class="cls-8" d="M91.31,24.94c0-3.1-.02-6.2.01-9.3,0-.96-.2-1.72-1.2-2.06-.92-.32-1.16-1-1.14-1.9.03-1.55.05-3.1,0-4.65-.05-1.26.51-1.86,1.75-1.86,3.68,0,7.36-.01,11.04,0,1.05,0,1.65.55,1.66,1.59.03,1.67.02,3.35,0,5.02,0,1.03-.53,1.68-1.6,1.64-1.91-.08-2.08,1.13-2.08,2.56,0,5.83.17,11.67-.06,17.49-.18,4.4-.84,8.77-4.59,11.92-3.06,2.57-6.72,3.49-10.54,3.73-4.95.3-9.87-.05-14.25-2.73-2.9-1.78-4.52-4.5-5.27-7.78-1.57-6.92-.81-13.94-.99-20.93-.02-.87-.04-1.74,0-2.6.05-1.07-.37-1.67-1.5-1.63-1.49.05-1.96-.76-1.92-2.11.04-1.49,0-2.98.01-4.46,0-1.14.58-1.71,1.73-1.71,5.8,0,11.6.01,17.41,0,1.09,0,1.63.42,1.62,1.53-.02,1.8,0,3.6,0,5.39,0,.52-.08,1.12-.62,1.25-1.56.37-1.61,1.53-1.59,2.75.1,6.5-.21,13.01.29,19.51.35,4.63,4.63,7.38,8.59,5.38,2.79-1.41,2.95-4.18,3.15-6.72.24-3.08.06-6.2.06-9.3.01,0,.03,0,.04,0Z"/>
    <path class="cls-18" d="M18.68,4.71c5.73.06,11.47-.17,17.19.35,4.1.38,8.21.7,11.57,3.48,4.09,3.37,5.58,10.22,1.62,14.95-1.15,1.38-2.44,2.57-3.68,3.82-.72.72-.73,1.35-.23,2.14,1.94,3.09,3.86,6.19,5.79,9.28.52.83,1.12,1.44,2.24,1.35.89-.07,1.15.55,1.15,1.34,0,1.67.01,3.35,0,5.02,0,1.02-.43,1.6-1.58,1.59-3.81-.03-7.61-.04-11.42,0-1.4.02-1.96-.92-2.5-1.91-2.69-4.93-5.36-9.88-8.03-14.82-.58-1.07-1.38-1.7-2.68-1.64-1.31.06-2.62,0-3.93.01-1.35.01-2.09.61-2.07,2.04.03,2.05.02,4.09,0,6.14-.01,1.32.46,2.19,1.92,2.17,1.25-.02,1.61.63,1.58,1.76-.04,1.55-.03,3.1,0,4.65.01,1.09-.5,1.59-1.59,1.59-6.36,0-12.73-.01-19.09,0-1.13,0-1.57-.53-1.55-1.6.03-1.61.04-3.23,0-4.84-.03-1.1.43-1.62,1.55-1.57,1.57.06,2.13-.98,2.14-2.26.05-7.5.04-15.01,0-22.51,0-1.28-.58-2.32-2.14-2.26-1.13.04-1.56-.5-1.54-1.58.03-1.67.05-3.35,0-5.02-.04-1.32.58-1.71,1.82-1.7,4.49.04,8.98.02,13.48.01ZM22.14,17.66h-.02c0,1.05,0,2.11,0,3.16,0,2.14.29,2.42,2.49,2.48,2.24.05,4.48-.02,6.7-.36,1.91-.29,3.97-2.37,4.28-4.4.36-2.37-.79-4.64-2.8-5.56-3.1-1.42-6.37-.67-9.57-.71-.85,0-1.06.75-1.07,1.49-.02,1.3,0,2.6,0,3.9Z"/>
    <path class="cls-21" d="M22.14,17.66c0-1.3-.01-2.6,0-3.9,0-.73.22-1.5,1.07-1.49,3.2.03,6.47-.71,9.57.71,2.01.92,3.16,3.18,2.8,5.56-.3,2.03-2.36,4.11-4.28,4.4-2.22.34-4.46.41-6.7.36-2.2-.05-2.48-.34-2.49-2.48,0-1.05,0-2.11,0-3.16h.02ZM27.72,20.74c.92-.04,1.77.07,2.52-.15,1.17-.35,2.4-.75,2.57-2.31.13-1.2-.05-2.31-1.2-2.86-1.85-.88-3.88-.65-5.86-.67-.24,0-.64.3-.69.53-.36,1.64-.54,3.37.05,4.91.41,1.07,1.8.34,2.61.55Z"/>
    <path class="cls-17" d="M203.55,48.47c5.43,0,10.87-.06,16.3.04,1.55.03,1.97-.46,1.88-1.92-.12-2.02-.03-4.05-.03-6.07q0-2.42-2.41-2.42c-3.14,0-3.18,0-3.45,3.18-.11,1.27-.68,1.79-1.95,1.78-4.17-.02-8.33-.03-12.5,0-1.38,0-1.98-.63-1.98-1.95.01-3.33.02-6.67,0-10-.01-1.45.67-2.02,2.1-2,3.02.04,6.04.01,9.06.01,4.22,0,4.17,0,4.18-4.22,0-1.28-.41-1.6-1.65-1.58-3.86.07-7.73.01-11.59.03-1.42,0-2.12-.57-2.1-2.03.04-2.8.04-5.6,0-8.4-.02-1.46.71-2.01,2.12-2.01,3.86.02,7.73.03,11.59,0,1.34-.01,1.97.58,2.17,1.85.43,2.88.46,2.88,3.47,2.88.36,0,.73-.04,1.09,0,1.16.15,1.42-.41,1.39-1.45-.06-2.32-.11-4.65.02-6.96.08-1.45-.43-1.76-1.82-1.75-10.39.06-20.77.03-31.16.03-2.72,0-2.83.13-2.53,2.79.2,1.77,1.76,1.24,2.68,1.39,1.79.29,2.4,1.03,2.38,2.82-.08,9.11-.02,18.22-.04,27.33,0,4.34.47,3.93-3.75,4.65-2.07.35-1.11,1.91-1.24,2.98-.16,1.3.93.97,1.63.97,5.37.02,10.75.01,16.12.01ZM183.31,43.98c0-1,.73-1.87,1.73-2,.49-.06.98-.16,1.48-.28,1.21-.31,1.16-.6,1.19-2.67.12-8.48.12-11.23.01-24.12-.02-1.9-.02-2.16-1.05-2.45-.39-.11-.8-.2-1.22-.28-1.24-.22-2.14-1.28-2.14-2.52v-5.18c0-1.02.84-1.85,1.87-1.85,12.29,0,24.58,0,36.86-.03,2.07,0,2.41.9,2.11,3.4-.38,3.09-.45,6.22,0,9.3s-.5,3.76-3.4,3.31c-1.61-.25-3.24-.22-4.85,0-2.26.32-3.55-.03-3.44-2.05.03-.47-.09-.95-.09-1.43,0-.99-.39-1.35-1.72-1.2-2.24.26-4.5.23-6.74,0-1.27-.13-1.59.15-1.52,1.11.13,1.71-.7,3.92.31,5.01,1.01,1.09,2.54.22,5.26.31,2.4.08,4.78.2,7.18,0,1.94-.17,2.69.54,2.65,2.23-.05,2.38,0,4.77-.02,7.15-.02,2.07-.35,2.4-2.43,2.41-3.75.02-7.49.08-11.24-.03-1.75-.06-1.9.64-1.65,2.57.16,1.2.13,2.42-.02,3.63-.21,1.68.08,1.56,2.07,1.63,2.5.09,3.78-.1,6.39,0,1.71.07,2.02.03,2.07-1.02.22-4.35.11-3.74,4.15-3.78,1.92-.02,3.84.04,5.76-.02,1.06-.03,1.93.81,1.93,1.86,0,4.23,0,8.46,0,12.69,0,.99-.81,1.78-1.81,1.78-12.46-.09-25.12.07-37.6-.08-1.15-.01-2.08-.95-2.08-2.09v-5.29Z"/>
    <g>
      <g>
        <path class="cls-15" d="M46.15,3.53c4.14,1.48,6.95,4.59,8.06,8.8,1.57,5.96-.33,11.12-4.61,15.44-.79.8-.91,1.42-.34,2.33,1.4,2.23,2.75,4.5,4.15,6.74.49.78,1.29,1.06,2.17,1.06,1.69.01,2.25.92,2.22,2.48-.04,2.7,0,5.41-.01,8.12-.01,2.36-.22,2.57-2.53,2.57-4.15,0-8.32-.2-12.46.07-2.81.18-4.19-.92-5.39-3.29-2.49-4.92-5.33-9.66-7.95-14.51-1.02-1.88-2.75-1.46-4.1-1.11-1.95.5-.89,2.38-1.07,3.66-.2,1.37.57,1.95,1.93,2.06,1.17.09,1.85.75,1.83,2.05-.04,3.09-.03,6.18,0,9.27.02,1.32-.55,1.82-1.88,1.81-7.98-.03-15.97-.03-23.95,0-1.57,0-2.24-.62-2.21-2.19.06-2.9.08-5.8,0-8.69-.04-1.56.6-2.31,2.14-2.29,1.35.01,1.82-.66,1.81-1.93-.02-6.44-.01-12.88-.02-19.32,0-1.37-.3-2.46-2.06-2.33C.41,14.44-.01,13.61.01,12.28c.05-2.7,0-5.41,0-8.12,0-2.44.14-2.59,2.68-2.59,10.39,0,20.77.01,31.16,0,.61,0,7.2.13,12.29,1.96ZM18.72,4.21c-4.56,0-9.11.02-13.67-.02-1.26-.01-1.89.39-1.85,1.72.06,1.69.04,3.39,0,5.08-.02,1.09.42,1.64,1.56,1.6,1.58-.06,2.16.99,2.17,2.29.05,7.6.05,15.19,0,22.79,0,1.29-.58,2.35-2.17,2.28-1.14-.05-1.6.48-1.57,1.59.04,1.63.03,3.26,0,4.9-.02,1.08.43,1.62,1.57,1.62,6.45-.01,12.91-.01,19.36,0,1.1,0,1.62-.51,1.61-1.61-.02-1.57-.04-3.14,0-4.71.03-1.14-.33-1.8-1.6-1.78-1.48.03-1.96-.86-1.95-2.19.02-2.07.03-4.14,0-6.21-.02-1.45.73-2.05,2.1-2.06,1.33-.01,2.66.05,3.98-.01,1.32-.06,2.13.58,2.72,1.66,2.71,5,5.42,10.01,8.14,15,.55,1,1.12,1.95,2.53,1.93,3.86-.04,7.72-.04,11.58,0,1.17,0,1.59-.58,1.6-1.61.01-1.69,0-3.39,0-5.08,0-.8-.27-1.43-1.17-1.36-1.13.08-1.75-.53-2.27-1.37-1.95-3.13-3.9-6.27-5.87-9.39-.5-.8-.49-1.44.23-2.16,1.26-1.27,2.57-2.47,3.74-3.86,4.02-4.79,2.5-11.72-1.64-15.14-3.41-2.81-7.57-3.14-11.73-3.52-5.81-.53-11.62-.3-17.44-.36Z"/>
        <path class="cls-14" d="M18.72,4.17c5.81.06,11.63-.18,17.44.36,4.16.38,8.32.71,11.73,3.53,4.14,3.42,5.66,10.37,1.64,15.16-1.17,1.39-2.47,2.6-3.74,3.87-.73.73-.74,1.37-.23,2.17,1.96,3.13,3.92,6.27,5.87,9.41.52.84,1.14,1.46,2.27,1.37.9-.07,1.17.56,1.17,1.36,0,1.7.01,3.4,0,5.09,0,1.04-.44,1.62-1.6,1.61-3.86-.03-7.72-.04-11.58,0-1.42.02-1.99-.93-2.53-1.93-2.72-5-5.43-10.01-8.14-15.02-.58-1.08-1.4-1.72-2.72-1.66-1.33.06-2.66,0-3.98.01-1.36.01-2.12.62-2.1,2.07.03,2.07.02,4.15,0,6.23-.01,1.34.47,2.22,1.95,2.2,1.27-.02,1.63.64,1.6,1.78-.05,1.57-.03,3.14,0,4.72.01,1.1-.51,1.61-1.61,1.61-6.45,0-12.91-.01-19.36,0-1.14,0-1.59-.54-1.57-1.62.03-1.63.04-3.27,0-4.9-.03-1.11.43-1.64,1.57-1.59,1.59.07,2.16-.99,2.17-2.29.05-7.61.05-15.22,0-22.83,0-1.3-.59-2.35-2.17-2.29-1.15.04-1.58-.51-1.56-1.61.03-1.7.05-3.4,0-5.09-.05-1.34.59-1.74,1.85-1.73,4.55.04,9.11.02,13.67.01ZM22.22,17.31h-.02c0,1.07,0,2.14,0,3.2,0,2.17.29,2.46,2.53,2.51,2.27.05,4.54-.03,6.8-.37,1.94-.29,4.03-2.4,4.34-4.46.36-2.41-.8-4.7-2.84-5.63-3.14-1.44-6.46-.68-9.71-.72-.86,0-1.08.76-1.09,1.51-.02,1.32,0,2.64,0,3.96Z"/>
        <path class="cls-15" d="M22.22,17.31c0-1.32-.01-2.64,0-3.96,0-.74.23-1.52,1.09-1.51,3.25.03,6.56-.72,9.71.72,2.04.93,3.21,3.23,2.84,5.63-.31,2.05-2.39,4.17-4.34,4.46-2.26.34-4.52.42-6.8.37-2.24-.05-2.52-.34-2.53-2.51,0-1.07,0-2.13,0-3.2h.02ZM27.88,20.43c.93-.04,1.8.07,2.56-.15,1.19-.35,2.44-.76,2.6-2.34.13-1.22-.05-2.35-1.22-2.9-1.88-.89-3.94-.66-5.94-.68-.24,0-.65.31-.7.53-.36,1.66-.55,3.42.05,4.98.42,1.09,1.82.34,2.64.56Z"/>
      </g>
      <g>
        <path class="cls-13" d="M22.22,44.29c.04-.16.1-.25.23-.07-.06.1-.14.08-.23.07Z"/>
        <g>
          <path class="cls-20" d="M34.31,25.86c.64.95,1.11,1.96,2.03,2.65,2.1,1.57,3.31,3.66,3.53,6.28.09,1.08-.18,2.12-.48,3.21.83-.61,1.64-1.24,2.48-1.83,1.82-1.28,3.67-2.53,5.73-3.41,1.02-.43,2.07-.67,3.19-.65,2.09.04,3.32,1.9,2.5,3.83-.49,1.16-1.43,1.87-2.5,2.4-2.51,1.24-5.05,2.42-7.55,3.68-1.73.87-3.41,1.84-4.97,3-.73.54-1.54.91-2.47.94-1.74.06-2.46-.9-2.32-2.57.03-.35.14-.7.22-1.05.21-.93.06-1.36-.77-1.84-.79-.46-1.66-.73-2.55-.96-.13.68.04,1.33-.16,1.97-.37,1.21-1.06,1.73-2.28,1.52-.44-.08-.52-.02-.52.41.03,2.82-.95,5.27-2.72,7.43-1.52,1.85-3.63,2.38-5.54,1.36-1.07-.57-1.63-1.56-2.09-2.62-.83-1.9-1.17-3.92-1.44-5.95-.38-2.89-.44-5.81-.96-8.68-.06-.35-.04-.9-.46-.94-.5-.05-.47.53-.57.85-.58,2.04-1.19,4.07-2.38,5.86-.59.88-1.26,1.73-2.5,1.63-1.07-.09-1.72-.83-2.27-1.62-1.06-1.48-1.48-3.22-1.78-4.98-.86-4.96-.34-9.86.7-14.74.72-3.36,1.59-6.66,3.07-9.78C10.47,6.99,13.42,3.51,17.22.75c.5-.36,1.05-.59,1.64-.71.9-.18,1.43.24,1.49,1.15.06.88-.28,1.66-.65,2.42-1.36,2.76-2.65,5.54-3.82,8.39-.78,1.91-2.31,2.63-4.24,2.69-.41.01-.64.12-.84.47-1.95,3.29-3.12,6.86-3.83,10.6-.44,2.28-.59,4.58-.39,6.89.15,1.73.41,3.46,1.05,5.09.25.62.45,1.43,1.19,1.49.75.05,1.06-.74,1.36-1.32.81-1.57,1.28-3.27,1.92-4.91.31-.79.68-1.56,1.33-2.14.76-.68,1.52-.59,2.09.25.67.99.84,2.15,1.03,3.29.57,3.44.85,6.93,1.37,10.37.22,1.43.47,2.86,1.19,4.15.31.56.72,1.03,1.33,1.27,1.02.4,1.81-.07,2.44-.78,1.57-1.78,2.15-3.92,2.08-6.26-.03-.78-.16-1.54-.43-2.29-.33-.92-.76-1.63-1.74-2.1-2.55-1.24-3.81-3.48-3.87-6.22-.06-2.74.18-5.51,1.46-8.02,1.03-2.03,2.67-3.59,4.29-5.14,1.06-1.01,2.16-1.96,3.09-3.1.16-.19.3-.31.12-.61-1.33-2.26-1.08-4.47.27-6.62.2-.32.29-.63.28-1-.04-1.44.12-2.86.53-4.25.46-1.59,1.04-1.92,2.61-1.45.55.17,1.15.32,1.6.64,1,.72,2.06.64,3.18.51,2.82-.32,5.48.13,7.85,1.8.29.21.63.21.96.23.98.08,1.94.27,2.89.55.53.15.78.45.78,1.07,0,1.51-.32,2.93-.98,4.26-.32.65-.02,1.24.05,1.84.34,3.28-1.19,5.33-3.88,6.46-.4.17-.68.41-.95.77-.74,1-1.79,1.53-3.03,1.65-.38.04-.68.1-.92.44-1.18,1.66-2.77,2.75-4.81,3.29ZM38.67,22.44c.08-.03.17-.09.1-.18-.08-.13-.23-.1-.36-.09-1.32-.5-2.52-.5-3.73.47-1,.8-1.09.68-.83,1.93.19.28-.07.97.61.77,1.66-.49,3.1-1.33,4.12-2.79.03-.04.06-.07.09-.11ZM25.2,46.02c-.02.06-.03.11-.05.17-.44,1.27-.93,2.52-1.91,3.5-1.57,1.57-3.49,1.3-4.53-.66-.57-1.06-.85-2.21-1.07-3.38-.66-3.44-.82-6.95-1.35-10.41-.19-1.26-.3-2.55-.96-3.68-.49-.84-1.21-.9-1.85-.17-.43.49-.75,1.06-.97,1.68-.41,1.16-.79,2.33-1.22,3.48-.34.92-.7,1.85-1.34,2.62-.73.9-1.54.86-2.2-.09-.29-.41-.5-.85-.65-1.32-1.21-3.83-1.23-7.72-.61-11.65.42-2.66,1.13-5.24,2.09-7.76.62-1.2,1.13-2.45,1.88-3.56-.12-.21-.41-.1-.49-.33.27-.32.7-.06.99-.28.31,0,.63,0,.93-.03,1.36-.17,2.62-.59,3.25-1.93,1.23-2.6,2.4-5.22,3.6-7.83.56-.99,1.16-1.97,1.19-3.16.02-.67-.34-.95-.98-.8-.5.12-.96.36-1.38.67-3.23,2.4-5.98,5.26-7.84,8.84-3.51,6.75-5.05,13.99-5.03,21.56,0,2.51.36,5.01,1.3,7.37.4,1.01.91,1.95,1.83,2.6.74.51,1.38.5,2.1-.03.52-.38.88-.89,1.2-1.44,1.01-1.69,1.58-3.55,2.16-5.4.07-.23.17-.46.26-.68.12-.29.32-.54.63-.53.36,0,.53.31.62.63.1.37.21.73.26,1.11.37,3.1.69,6.2,1.09,9.29.24,1.89.61,3.76,1.5,5.47.92,1.77,2.16,2.46,4.01,2.3.11.02.21.04.28-.08.19-.02.38-.06.53-.19.33-.1.61-.28.86-.5,2.36-1.99,3.41-4.59,3.56-7.61.02-.46.16-.98-.2-1.36-.7-.73-1.14-1.6-1.47-2.53-.14-.39-.36-.44-.71-.35,1.02,2.46,1.18,3.9.7,6.18-.01.09-.02.17-.03.26ZM24.13,34.95c-.1-2.96-.21-5.91.53-8.82.07-.27-.06-.32-.3-.38-1.34-.3-2.75.3-3.67,1.67-1.26,1.89-1.55,3.97-1.11,6.17.58,3.32,3.77,5.42,5.36,5.35-.44-1.31-.54-2.67-.8-4ZM36.34,31.87c0-.1,0-.2,0-.3,0-.02.02-.04.02-.06-.01-.04-.04-.07-.06-.11-.04-1.19-.34-2.32-1.01-3.29-.96-1.4-1.96-2.76-2.04-4.61-.48.23-.85.45-1.24.59-.37.14-.49.34-.5.74-.01,1.41-.24,2.81-.46,4.2-.3,1.88-.65,3.75-.71,5.66-.14,1.03-.14,2.06-.12,3.09.02,1.19-.19,1.35,1.25.78.19-.07.34-.21.53-.29.15-.07.31-.2.49,0-.32.47-.83.68-1.33.97,1,.45,1.96.84,2.73,1.55.3.59.3,1.18.12,1.81-.11.38-.16.79-.16,1.19,0,.97.54,1.59,1.5,1.75.91.15,1.7-.18,2.42-.71.52-.35,1.03-.71,1.55-1.04,3-1.89,6.22-3.35,9.41-4.87,1.07-.51,2.17-.97,3.05-1.79.41-.31.79-.64.92-1.16-.39.3-.84.42-1.26.61-.19-.01-.4.1-.63-.09.52-.32,1.11-.42,1.51-.86.39-.26.84-.53.76-1.06-.1-.65-.41-1.21-.96-1.62-.33-.25-.53-.32-.64.22-.08.4-.35.75-.53,1.13-.49.37-.86.94-1.61.94.13-.39.54-.43.7-.73.51-.4.81-.94,1.02-1.54.11-.32.02-.43-.32-.43-1.03-.01-2,.23-2.92.65-4.17,1.88-7.71,4.67-11.04,7.76-.24.22-.38.58-.8.64.04-.37.31-.56.42-.82.34-.35.65-.74,1.03-1.03,1.25-.98,1.73-2.32,1.91-3.82.42-2.78-1.48-5.95-2.87-6.57.46,1.67.53,3.31.02,4.94-.25.34-.27.85-.8,1.16.19-1.12.73-2.07.64-3.14v-.06c.07-.11.06-.22.03-.34ZM30.07,18.07c-.49-.46-1.01-.89-1.45-1.39-.26-.29-.37-.23-.61.01-.92.92-1.86,1.82-2.8,2.72-1.69,1.62-3.31,3.29-4.39,5.4-.41.8-.77,1.63-.89,2.56.08-.01.11-.01.12-.02.06-.06.12-.13.18-.2,1.08-1.43,2.43-2.23,4.29-1.78.35.08.41-.12.5-.36.29-.83.68-1.6,1.19-2.32,1.41-1.96,4.43-1.95,5.14.4-.01.59.13.8.75.44,1.64-.93,3.31-1.81,4.97-2.7.29-.07.59-.13.93-.21-.28-.43-1.22-.51-.57-1.29.09-.1.26-.3.1-.48-.15-.16-.34-.02-.51,0-.09.02-.18.01-.27.04-.52.19-.83.14-.67-.54.03-.14.08-.34-.09-.43-.17-.09-.28.08-.39.17-.45.38-.92.68-1.52.8-1.97.38-3.94.81-5.92,1.18-.5.09-.98.37-1.7.22.69-.45,1.33-.6,1.96-.76.98-.19,1.97-.38,3.1-.59-.58-.34-1.02-.6-1.47-.87ZM29.9,40.23c0-.16.03-.31.01-.47-.25-3.24.04-6.45.52-9.65.26-1.75.62-3.49.54-5.28.07-.65-.08-1.26-.42-1.83-.07.39-.14.77-.2,1.16-.23.42-.32.93-.95,1.29.3-.7.57-1.24.63-1.83.03-.29.08-.58.08-.86,0-.35-.03-.71-.48-.85-.58-.18-1.14-.21-1.7.05-.15.07-.36.08-.21.36.28.49.14,1.05.18,1.58-.22.48-.19,1.07-.65,1.5-.02-.17-.04-.3-.06-.42.21-.53.33-1.07.3-1.64-.02-.32-.01-.74-.31-.83-.23-.07-.44.31-.6.54-1.21,1.69-1.7,3.63-1.93,5.65-.31,2.78-.17,5.56.28,8.32.25,1.55.6,3.08,1.52,4.4.65.93,1.6,1.37,2.31,1.12.76-.26,1.16-1.09,1.13-2.3ZM29.6,3.23c-.65,1.49-.6,3.08-.72,4.66.4-.1.47-.61.9-.58-.02.37-.32.58-.52.84-1.25,1.67-2.09,3.46-1.63,5.62.41,1.92,1.66,3.22,3.21,4.31.83.58,1.66.99,2.72.46.09-.13-.27-.34-.02-.54.63.63.81.64,1.47.12.07-.06.14-.12.21-.17.31-.21.59-.65.97-.48.41.18.18.68.22,1.05,0,.04.04.07.06.11.29-.04.57-.11.86-.13.68-.04.82.11.52.71-.25.48-.2.75.27.99.18.09.34.25.31.48-.04.25-.28.27-.46.34-.14.06-.31.06-.45.12-.12.06-.3-.01-.4.23,2.99.83,5.36.32,6.55-2.94.18.27.07.42.05.57-.01.14-.14.29.04.43,1.94-.85,3.35-2.15,3.67-4.35.2-1.37-.02-2.73-.31-4.07-.06-.29-.25-.59.05-.86.12.27.23.55.37.89.52-1.24.94-2.44.87-3.75.05-.35.08-.68-.37-.81-.96-.27-1.93-.43-3.04-.56.53.64,1.08,1.13,1.21,1.9-2.82-3.75-6.69-4.31-10.95-3.86.02.31.37.38.26.68-.37.06-.62-.18-.89-.35-1.08-.7-2.18-1.33-3.43-1.66-.92-.24-1.25-.12-1.61.59ZM36.42,29.2s.03.06.05.08c.01-.01.04-.03.04-.04,0-.03-.03-.06-.04-.09-.01.01-.03.03-.04.05Z"/>
          <path class="cls-9" d="M47.18,10.14c-.3.27-.11.57-.05.86.29,1.34.51,2.7.31,4.07-.32,2.2-1.73,3.51-3.67,4.35-.18-.14-.06-.29-.04-.43.02-.15.13-.29-.05-.57-1.2,3.26-3.56,3.77-6.55,2.94.1-.24.28-.18.4-.23.14-.07.31-.06.45-.12.18-.07.42-.09.46-.34.03-.24-.13-.39-.31-.48-.47-.24-.51-.51-.27-.99.31-.6.16-.76-.52-.71-.29.02-.57.08-.86.13-.02-.04-.05-.07-.06-.11-.04-.36.19-.86-.22-1.05-.38-.17-.67.27-.97.48-.07.05-.14.11-.21.17-.66.52-.84.51-1.47-.12-.25.2.11.41.02.54-1.06.53-1.89.12-2.72-.46-1.55-1.08-2.8-2.39-3.21-4.31-.46-2.16.38-3.95,1.63-5.62.2-.26.5-.47.52-.84.04-.08.09-.16.1-.24.15-1.24-.12-2.46-.15-3.7,0-.05-.09-.09-.14-.13.36-.71.68-.84,1.61-.59,1.25.33,2.36.96,3.43,1.66.27.18.53.41.89.35.11-.3-.24-.37-.26-.68,4.26-.46,8.14.1,10.95,3.86-.14-.77-.68-1.26-1.21-1.9,1.11.13,2.08.28,3.04.56.45.13.42.46.37.81-.41.95-.83,1.91-1.24,2.86ZM36.56,11.15s-.07.03-.1.04c.02,0,.04.03.04.03.02-.03.04-.06.06-.09.13.71.26,1.42.39,2.14.41-.82.09-1.49-.39-2.12ZM31.27,12.42c-.1.19-.22.38-.31.58-.53,1.22-.41,1.73.65,2.5.39.28.8.56,1.28.69.71.42,1.5.57,2.3.66.51.06.86-.11.96-.69.28-1.66.13-3.27-.61-4.78-.44-.9-1.37-1.18-2.35-.79-.59.23-1.1.59-1.45,1.14-.05.01-.07.05-.07.1-.19.15-.3.35-.38.58ZM43.56,14.31c-.13.65-.29,1.3-.38,1.96-.04.34-.21.76.23,1.01.81.3,2.23-.29,2.6-1.14.52-1.19.57-2.44.14-3.67-.32-.92-1.08-1.01-1.67-.23-.46.62-.7,1.34-.92,2.06ZM43.93,12.06c-.59.51-.99,1.13-.87,1.96.34-.63.56-1.31.87-1.96Z"/>
          <path class="cls-11" d="M21.68,52.2c-1.85.17-3.1-.53-4.01-2.3-.89-1.71-1.26-3.58-1.5-5.47-.39-3.09-.72-6.19-1.09-9.29-.04-.37-.15-.74-.26-1.11-.09-.31-.26-.62-.62-.63-.31,0-.51.24-.63.53-.09.23-.19.45-.26.68-.58,1.86-1.15,3.72-2.16,5.4-.32.54-.69,1.06-1.2,1.44-.72.53-1.37.54-2.1.03-.92-.64-1.43-1.59-1.83-2.6-.95-2.36-1.3-4.86-1.3-7.37-.02-7.57,1.52-14.81,5.03-21.56,1.86-3.58,4.61-6.45,7.84-8.84.42-.31.88-.54,1.38-.67.64-.16,1,.13.98.8-.03,1.19-.64,2.17-1.19,3.16-.22-.38-.36-.06-.5.06-.78.65-1.4,1.44-2.06,2.19-1.37,1.55-2.5,3.27-3.49,5.08-.49.91-1.08,1.56-2.07,1.84-.21.06-.45.08-.54.34-.05.04-.13.06-.16.11-.73,1.23-1.1,2.6-1.45,3.97-.03.13-.01.27.11.36-.96,2.52-1.67,5.1-2.09,7.76-.62,3.93-.6,7.82.61,11.65.15.47.36.91.65,1.32.66.94,1.46.98,2.2.09.64-.77,1-1.7,1.34-2.62.43-1.15.82-2.32,1.22-3.48.22-.62.54-1.19.97-1.68.64-.73,1.36-.67,1.85.17.66,1.13.76,2.42.96,3.68.54,3.46.69,6.97,1.35,10.41.22,1.17.51,2.32,1.07,3.38,1.05,1.96,2.97,2.23,4.53.66.98-.98,1.47-2.22,1.91-3.5.01.18.06.36.03.54-.3,1.86-.93,3.55-2.45,4.77-.16.12-.26.24-.24.44-.15.13-.34.17-.53.19-.16-.23-.23-.12-.28.08Z"/>
          <path class="cls-7" d="M30.98,24.83c.08,1.79-.28,3.53-.54,5.28-.48,3.2-.77,6.41-.52,9.65.01.15,0,.31-.01.47-.52,1.03-1.01,1.35-1.85,1.06-.9-.31-1.34-1.09-1.62-1.92-.66-1.96-.8-4.02-.96-6.06-.09-1.23-.01-2.46.13-3.69.16-1.4.52-2.76.97-4.1.09-.28.3-.5.62-.55.02.13.03.25.06.42.46-.42.43-1.02.65-1.5.38-.26.78-.49,1.28-.4.28.05.56.09.85.13-.06.6-.32,1.13-.63,1.83.63-.36.72-.87.95-1.29.55-.09.45.42.62.67ZM28.7,36.73c-.02-.96-.08-1.93-.36-2.86-.13-.43-.25-.95-.81-.92-.5.03-.64.5-.74.93-.28,1.2-.23,2.4-.04,3.61.07.44.19.88.45,1.25.18.25.41.42.73.4.32-.03.43-.29.52-.55.21-.6.25-1.23.24-1.86Z"/>
          <path class="cls-4" d="M28.43,19.53c-.63.16-1.26.31-1.96.76.72.16,1.2-.13,1.7-.22,1.98-.37,3.94-.8,5.92-1.18.6-.12,1.07-.42,1.52-.8.11-.09.23-.26.39-.17.17.09.12.29.09.43-.16.68.14.73.67.54.08-.03.18-.02.27-.04.17-.03.36-.17.51,0,.17.17-.01.38-.1.48-.65.77.3.86.57,1.29-.34.08-.63.14-.93.21-.25-.29-.49-.14-.78-.03-1.28.5-2.5,1.16-3.84,1.53-.41.11-.92.25-1.12.76-.71-2.35-3.73-2.36-5.14-.4-.52.72-.91,1.49-1.19,2.32-.09.25-.15.45-.5.36-1.86-.45-3.21.35-4.29,1.78-.05.07-.11.14-.18.2-.01.01-.04,0-.12.02.12-.93.48-1.76.89-2.56,1.08-2.11,2.7-3.78,4.39-5.4.94-.9,1.88-1.79,2.8-2.72.24-.24.34-.3.61-.01.45.5.96.93,1.45,1.39-.36.33-.76.58-1.18.81-.26.14-.48.31-.45.66Z"/>
          <path class="cls-1" d="M52.32,35.6c-.4.43-.99.53-1.51.86.22.2.43.08.63.09.37.03.35.29.34.55-.89.82-1.99,1.28-3.05,1.79-3.19,1.53-6.41,2.98-9.41,4.87-.53.33-1.04.69-1.55,1.04-.13,0-.27,0-.4,0-.49-.01-.95-.03-.97-.72-.02-.9.18-1.21.91-1.3.08.68.34.86,1.05.62,1.25-.42,2.35-1.11,3.35-1.96.38-.33,1-.72.65-1.31-.36-.61-1.02-.29-1.53-.1-1.14.44-2.12,1.15-3.02,1.97-.07-.21-.04-.4.13-.55.75-.64,1.5-1.28,2.25-1.92.05-.04.09-.09.14-.13.06-.11.16-.13.27-.14.42.32.89.32,1.4.22-.15-.31-.4-.22-.61-.22-.3,0-.4-.14-.38-.41.65-.65,1.42-1.14,2.15-1.68,1.18-.87,2.5-1.51,3.8-2.16.76-.38,1.56-.66,2.39-.84.27-.06.66-.2.72.31-.16.3-.57.34-.7.72.75,0,1.12-.57,1.61-.94.9.02,1.35.45,1.37,1.33Z"/>
          <path class="cls-7" d="M36.32,32.27c.09,1.07-.45,2.02-.64,3.14.53-.31.54-.81.8-1.16.09.06.21.11.27.19.58.69,1.16,1.37,2.21,1.2.19-.03.26.15.37.25-.18,1.5-.66,2.85-1.91,3.82-.38.3-.69.69-1.03,1.03-.84.1-1.67.19-2.51.02-.77-.71-1.73-1.1-2.73-1.55.5-.29,1.01-.5,1.33-.97-.18-.2-.34-.06-.49,0-.18.08-.34.22-.53.29-1.44.57-1.23.41-1.25-.78-.01-1.03-.02-2.06.12-3.09.15-.04.3-.1.45-.12,1.82-.2,3.43-.89,4.86-2.03.19-.16.4-.29.67-.26Z"/>
          <path class="cls-9" d="M36.32,32.27c-.27-.03-.47.11-.67.26-1.43,1.14-3.04,1.83-4.86,2.03-.15.02-.3.08-.45.12.06-1.91.41-3.78.71-5.66.22-1.39.45-2.79.46-4.2,0-.4.13-.6.5-.74.39-.15.76-.36,1.24-.59.08,1.85,1.07,3.22,2.04,4.61.67.97.98,2.1,1.01,3.29,0,.02-.02.04-.02.06.01.04.04.07.06.11,0,.1,0,.2,0,.3-.1.11-.09.22-.03.34v.06Z"/>
          <path class="cls-9" d="M19.57,33.6c-.44-2.2-.15-4.28,1.11-6.17.92-1.38,2.33-1.98,3.67-1.67.24.05.37.1.3.38-.74,2.9-.63,5.86-.53,8.82-.39-.09-.77-.19-1.16-.28-.95-.22-1.93-.37-2.75-.97-.2-.15-.43-.09-.65-.1Z"/>
          <path class="cls-11" d="M33.88,40.77c.84.17,1.68.08,2.51-.02-.11.26-.38.44-.42.82.42-.06.56-.42.8-.64,3.32-3.09,6.86-5.88,11.04-7.76.92-.41,1.89-.66,2.92-.65.35,0,.44.11.32.43-.21.6-.51,1.14-1.02,1.54-.06-.51-.45-.37-.72-.31-.83.18-1.63.46-2.39.84-1.3.66-2.62,1.29-3.8,2.16-.73.54-1.5,1.03-2.15,1.68-.18.09-.32.22-.41.4-.11,0-.21.03-.27.14-.05.04-.09.09-.14.13-.75.64-1.5,1.28-2.25,1.92-.17.15-.2.34-.13.55,0,0,0,0,0,0-.55-.07-.7.13-.44.63-.02.05-.03.1-.05.15-.73.09-.93.4-.91,1.3.02.69.48.7.97.72.13,0,.27,0,.4,0-.72.53-1.51.86-2.42.71-.96-.16-1.5-.78-1.5-1.75,0-.4.05-.81.16-1.19.18-.63.18-1.22-.12-1.81Z"/>
          <path class="cls-11" d="M27.2,24.96c-.32.05-.53.28-.62.55-.44,1.34-.8,2.7-.97,4.1-.14,1.22-.22,2.46-.13,3.69.15,2.04.3,4.1.96,6.06.28.83.72,1.62,1.62,1.92.83.29,1.32-.03,1.85-1.06.03,1.22-.37,2.04-1.13,2.3-.71.25-1.66-.19-2.31-1.12-.92-1.32-1.27-2.85-1.52-4.4-.45-2.76-.59-5.54-.28-8.32.23-2.02.71-3.97,1.93-5.65.16-.23.37-.61.6-.54.3.09.29.51.31.83.03.57-.09,1.11-.3,1.64Z"/>
          <path class="cls-7" d="M10.08,13.91c.09-.26.33-.28.54-.34.99-.28,1.58-.93,2.07-1.84.98-1.81,2.11-3.53,3.49-5.08.67-.75,1.28-1.55,2.06-2.19.15-.12.29-.44.5-.06-1.2,2.61-2.36,5.24-3.6,7.83-.63,1.33-1.89,1.76-3.25,1.93-.31.04-.62.02-.93.03-.3-.07-.69.11-.89-.28Z"/>
          <path class="cls-1" d="M19.57,33.6c.22,0,.45-.04.65.1.82.6,1.79.75,2.75.97.39.09.78.19,1.16.28.26,1.33.36,2.7.8,4-1.58.07-4.78-2.03-5.36-5.35Z"/>
          <path class="cls-13" d="M22.49,51.93c-.03-.2.08-.31.24-.44,1.53-1.22,2.15-2.92,2.45-4.77.03-.17-.02-.36-.03-.54.02-.06.03-.11.05-.17.14-.07.13-.16.03-.26.48-2.28.32-3.71-.7-6.18.35-.09.58-.03.71.35.33.93.78,1.8,1.47,2.53.36.37.22.9.2,1.36-.15,3.02-1.2,5.62-3.56,7.61-.26.22-.54.4-.86.5Z"/>
          <path class="cls-11" d="M39.33,35.89c-.11-.1-.18-.29-.37-.25-1.05.18-1.63-.5-2.21-1.2-.07-.08-.18-.13-.27-.19.51-1.63.44-3.27-.02-4.94,1.39.62,3.29,3.79,2.87,6.57Z"/>
          <path class="cls-4" d="M33.86,24.56c-.26-1.25-.17-1.13.83-1.93,1.21-.97,2.41-.97,3.73-.47.02.15.1.24.25.27-.03.04-.06.07-.09.11-.37-.04-.63.15-.89.38-1.09,1-2.4,1.46-3.84,1.63Z"/>
          <path class="cls-13" d="M31.35,23.08c.2-.51.71-.65,1.12-.76,1.34-.37,2.56-1.02,3.84-1.53.28-.11.53-.26.78.03-1.66.9-3.33,1.77-4.97,2.7-.63.36-.76.15-.75-.44Z"/>
          <path class="cls-11" d="M30.03,23.62c-.28-.04-.57-.08-.85-.13-.5-.09-.89.14-1.28.4-.05-.53.1-1.08-.18-1.58-.16-.28.06-.29.21-.36.56-.25,1.12-.23,1.7-.05.45.14.47.49.48.85,0,.29-.05.58-.08.86Z"/>
          <path class="cls-13" d="M33.86,24.56c1.44-.17,2.75-.64,3.84-1.63.25-.23.52-.42.89-.38-1.01,1.46-2.46,2.29-4.12,2.79-.68.2-.42-.5-.61-.77Z"/>
          <path class="cls-13" d="M29.6,3.23s.13.09.14.13c.03,1.23.29,2.46.15,3.7-.01.08-.07.16-.1.24-.43-.02-.49.49-.9.58.12-1.58.07-3.17.72-4.66Z"/>
          <path class="cls-11" d="M52.32,35.6c-.02-.87-.47-1.3-1.37-1.33.18-.38.45-.73.53-1.13.11-.54.3-.47.64-.22.55.41.86.97.96,1.62.08.53-.37.8-.76,1.06Z"/>
          <path class="cls-12" d="M10.08,13.91c.2.39.59.21.89.28-.29.22-.72-.04-.99.28.09.22.37.12.49.33-.75,1.11-1.27,2.36-1.88,3.56-.12-.09-.15-.23-.11-.36.35-1.37.72-2.74,1.45-3.97.03-.05.11-.07.16-.11Z"/>
          <path class="cls-13" d="M28.43,19.53c-.03-.34.18-.51.45-.66.42-.23.83-.48,1.18-.81.45.26.89.53,1.47.87-1.14.22-2.12.41-3.1.59Z"/>
          <path class="cls-12" d="M47.18,10.14c.41-.95.83-1.91,1.24-2.86.08,1.31-.35,2.5-.87,3.75-.14-.34-.26-.62-.37-.89Z"/>
          <path class="cls-12" d="M30.98,24.83c-.18-.25-.07-.76-.62-.67.07-.39.14-.77.2-1.16.34.57.49,1.18.42,1.83Z"/>
          <path class="cls-12" d="M51.78,37.1c0-.26.03-.52-.34-.55.42-.19.87-.32,1.26-.61-.13.52-.51.85-.92,1.16Z"/>
          <path class="cls-13" d="M38.67,22.44c-.15-.03-.23-.12-.25-.27.13-.01.27-.04.36.09.07.1-.02.15-.1.18Z"/>
          <path class="cls-7" d="M36.31,32.21c-.05-.12-.07-.24.03-.34.04.12.04.24-.03.34Z"/>
          <path class="cls-11" d="M25.23,45.76c.1.1.11.19-.03.26.01-.09.02-.17.03-.26Z"/>
          <path class="cls-11" d="M36.42,29.2s.03-.03.04-.05c.01.03.03.06.04.09,0,.01-.03.03-.04.04-.02-.03-.03-.06-.05-.08Z"/>
          <path class="cls-7" d="M36.34,31.56s-.04-.07-.06-.11c0-.02.01-.04.02-.06.02.04.04.07.06.11,0,.02-.01.04-.02.06Z"/>
          <path class="cls-20" d="M31.73,11.74c.35-.55.86-.91,1.45-1.14.99-.39,1.91-.12,2.35.79.74,1.51.89,3.12.61,4.78-.1.57-.44.75-.96.69-.8-.09-1.59-.24-2.3-.66.21-.14.44-.15.68-.14.47.11.94.23,1.42.34.72.16.82.09.87-.64.08-1.32-.09-2.61-.55-3.86-.06-.38-.08-.82-.65-.42-.25-.62-.71-.64-1.26-.45-.55.19-.95.56-1.31.99-.15-.06-.17-.27-.36-.27Z"/>
          <path class="cls-20" d="M43.56,14.31c.22-.73.46-1.45.92-2.06.59-.78,1.34-.7,1.67.23.43,1.23.38,2.48-.14,3.67-.37.85-1.79,1.44-2.6,1.14.06-.12.18-.13.29-.15.7-.28,1.31-1.55,1.16-2.42.29-.51.18-1.03.06-1.55-.03-.13-.06-.29-.21-.31-.17-.02-.19.15-.26.26-.28.43-.29.97-.63,1.37-.05-.11-.15-.15-.26-.16ZM44.69,16.74c.61-.03.94-.4,1.11-.87.33-.92.43-1.87.16-2.83-.08-.28-.19-.55-.42-.75-.18-.15-.33-.07-.49.03-.17.11-.06.21,0,.33.79,1.43.2,2.74-.37,4.1Z"/>
          <path class="cls-19" d="M31.73,11.74c.19,0,.21.22.36.27,0,.04,0,.08-.01.12-1.45,1.5-1.26,2.66.53,3.48.3.14.52.14.78-.09,1.04-.97,1.55-2.11,1.3-3.54,0-.16-.02-.33-.02-.49.57-.4.58.04.65.42-.23.07-.12.26-.11.39.05,1.4-.43,2.57-1.48,3.5-.08.07-.18.14-.14.27-.24-.01-.47,0-.68.14-.48-.14-.89-.41-1.28-.69-1.06-.77-1.18-1.28-.65-2.5.09-.2.21-.39.31-.58.37-.03.42-.28.38-.58,0-.05.02-.08.07-.1Z"/>
          <path class="cls-19" d="M43.56,14.31c.11,0,.21.04.26.16,0,.04,0,.08.02.11-.09.41-.22.81-.26,1.22-.05.44-.26.91.12,1.32-.11.02-.23.03-.29.15-.44-.25-.27-.67-.23-1.01.08-.66.25-1.3.38-1.96Z"/>
          <path class="cls-3" d="M36.56,11.14c.48.63.8,1.3.39,2.12-.13-.71-.26-1.42-.39-2.14h0Z"/>
          <path class="cls-20" d="M43.93,12.06c-.31.66-.53,1.34-.87,1.96-.11-.83.28-1.45.87-1.96Z"/>
          <path class="cls-20" d="M31.66,11.84c.03.3-.01.55-.38.58.08-.22.2-.42.38-.58Z"/>
          <path class="cls-3" d="M36.56,11.13s-.04.06-.06.09c0,0-.03-.02-.04-.03.03-.01.07-.03.1-.04,0,0,0-.02,0-.02Z"/>
          <path class="cls-3" d="M28.7,36.73c.02.63-.03,1.26-.24,1.86-.09.26-.2.52-.52.55-.32.03-.56-.15-.73-.4-.26-.38-.38-.81-.45-1.25-.19-1.2-.25-2.41.04-3.61.1-.43.24-.9.74-.93.56-.03.68.49.81.92.28.93.34,1.89.36,2.86ZM27.48,38.21h0c.03.25.18.44.42.45.25.01.32-.26.34-.44.16-1.47.13-2.94-.29-4.38-.05-.17-.13-.36-.35-.36-.25,0-.33.22-.38.41-.24.83-.15,1.68-.13,2.53.02.62.02,1.25.41,1.79Z"/>
          <path class="cls-3" d="M37.3,42.79s.03-.1.05-.15c.15-.21.29-.42.44-.63,0,0,0,0,0,0,.9-.82,1.88-1.53,3.02-1.97.51-.19,1.17-.51,1.53.1.35.59-.27.98-.65,1.31-.99.85-2.1,1.53-3.35,1.96-.71.24-.97.06-1.05-.62ZM39.36,41.42c-.05.04-.11.08-.16.13h0c-.36.15-.67.39-.93.68-.05.04-.11.08-.15.12-.17.2-.53.39-.37.64.15.23.49.03.74-.07,1.02-.41,1.96-.96,2.8-1.69.23-.2.62-.42.48-.73-.13-.28-.52-.03-.79,0l-.16.09h0c-.31.05-.59.17-.81.41h.01c-.11,0-.21.04-.27.15h0c-.17.04-.31.11-.41.27h0Z"/>
          <path class="cls-13" d="M40.57,39.27c.09-.18.23-.32.41-.4-.02.27.09.41.38.41.2,0,.46-.1.61.22-.51.09-.98.09-1.4-.22Z"/>
          <path class="cls-13" d="M40.17,39.54s.09-.09.14-.13c-.05.04-.09.09-.14.13Z"/>
          <path class="cls-1" d="M37.79,42.01c-.15.21-.29.42-.44.63-.26-.49-.11-.7.44-.63Z"/>
          <path class="cls-5" d="M34.66,11.48c0,.16.02.33.02.49-.08.18-.14.37-.24.55-.35.66-1.14,1.13-1.75.95-.66-.2-.53-.83-.62-1.33,0-.04,0-.08.01-.12.37-.42.76-.8,1.31-.99.55-.19,1.01-.17,1.26.45Z"/>
          <path class="cls-5" d="M33.57,16.06c-.03-.13.06-.2.14-.27,1.05-.93,1.53-2.1,1.48-3.5,0-.13-.12-.32.11-.39.46,1.25.63,2.54.55,3.86-.04.72-.14.8-.87.64-.47-.11-.95-.23-1.42-.34Z"/>
          <path class="cls-5" d="M44.69,16.74c.57-1.37,1.15-2.67.37-4.1-.06-.12-.18-.22,0-.33.15-.1.31-.18.49-.03.23.2.34.47.42.75.27.96.17,1.91-.16,2.83-.17.48-.49.84-1.11.87Z"/>
          <path class="cls-6" d="M43.71,17.12c-.38-.41-.16-.88-.12-1.32.05-.41.17-.82.26-1.22.31.29.64.41,1.02.12.15.87-.46,2.14-1.16,2.42Z"/>
          <path class="cls-5" d="M44.87,14.7c-.38.28-.71.16-1.02-.12-.02-.03-.03-.07-.02-.11.34-.4.35-.95.63-1.37.07-.11.09-.28.26-.26.16.02.18.19.21.31.12.52.23,1.05-.06,1.55Z"/>
          <path class="cls-6" d="M32.07,12.13c.1.5-.04,1.14.62,1.33.61.18,1.41-.28,1.75-.95.09-.18.16-.37.24-.55.26,1.43-.26,2.58-1.3,3.54-.26.24-.48.23-.78.09-1.8-.82-1.98-1.98-.53-3.48Z"/>
          <path class="cls-10" d="M27.48,38.21c-.38-.54-.39-1.17-.41-1.79-.02-.85-.11-1.7.13-2.53.05-.19.13-.41.38-.41.22,0,.3.19.35.36.43,1.44.45,2.9.29,4.38-.02.18-.09.45-.34.44-.24,0-.39-.2-.42-.45.38.1.53,0,.58-.45.08-.8,0-1.59-.03-2.39-.02-.39-.14-.78-.24-1.17-.03-.12-.09-.27-.27-.23-.12.03-.15.16-.15.27,0,.49-.11.97-.17,1.46-.1.87.33,1.66.28,2.5Z"/>
          <path class="cls-16" d="M40.98,40.51c.27-.03.66-.28.79,0,.14.3-.25.52-.48.73-.83.73-1.77,1.28-2.8,1.69-.24.1-.58.3-.74.07-.16-.25.2-.44.37-.64.04-.05.1-.08.15-.12.46-.03.84-.17.93-.69,0,0,0,.01,0,.01.05-.04.11-.08.16-.13,0,0,0,0,0,0,.21.02.41.02.41-.27,0,0,0,0,0,0,.12,0,.23-.02.27-.16,0,0-.01,0-.01,0,.37.05.73.08.81-.42,0,0,0,.01,0,.01.05-.03.11-.06.16-.09Z"/>
          <path class="cls-10" d="M39.2,41.53c-.09.52-.47.66-.93.69.27-.29.57-.53.93-.69Z"/>
          <path class="cls-10" d="M40.83,40.58c-.09.5-.44.47-.81.42.22-.24.5-.36.81-.42Z"/>
          <path class="cls-10" d="M39.76,41.15c0,.29-.2.29-.41.27.09-.16.24-.23.41-.27Z"/>
          <path class="cls-10" d="M40.02,41c-.04.14-.15.16-.27.16.06-.11.16-.14.27-.16Z"/>
          <path class="cls-10" d="M40.98,40.51c-.05.03-.11.06-.16.09.05-.03.11-.06.16-.09Z"/>
          <path class="cls-10" d="M39.36,41.42c-.05.04-.11.08-.16.13.05-.04.11-.08.16-.13Z"/>
          <path class="cls-2" d="M27.48,38.21c.05-.85-.38-1.63-.28-2.5.05-.48.16-.97.17-1.46,0-.11.03-.24.15-.27.17-.05.24.11.27.23.1.39.22.78.24,1.17.04.79.11,1.59.03,2.39-.05.44-.19.54-.58.45,0,0,0,0,0,0Z"/>
        </g>
      </g>
    </g>
  </g>
</svg>