<?xml version="1.0" encoding="UTF-8"?>
<svg id="Layer_2" data-name="Layer 2" xmlns="http://www.w3.org/2000/svg" viewBox="0 0 514.08 469.07">
  <defs>
    <style>
      .cls-1 {
        fill: #f5e9e9;
      }

      .cls-1, .cls-2, .cls-3, .cls-4, .cls-5, .cls-6, .cls-7, .cls-8, .cls-9, .cls-10, .cls-11, .cls-12, .cls-13, .cls-14, .cls-15, .cls-16, .cls-17 {
        stroke-width: 0px;
      }

      .cls-2 {
        fill: #2aa6d6;
      }

      .cls-3 {
        fill: #e0c1c7;
      }

      .cls-4 {
        fill: #2b282c;
      }

      .cls-5 {
        fill: #1d2d3e;
      }

      .cls-6 {
        fill: #f0c5ce;
      }

      .cls-7 {
        fill: #eef3f5;
      }

      .cls-8 {
        fill: #c62127;
      }

      .cls-9 {
        fill: #f8ebea;
      }

      .cls-10 {
        fill: #de836e;
      }

      .cls-11 {
        fill: #070606;
      }

      .cls-12 {
        fill: #f4e8e8;
      }

      .cls-13 {
        fill: #3c2829;
      }

      .cls-14 {
        fill: #ce8679;
      }

      .cls-15 {
        fill: #f1c5cf;
      }

      .cls-16 {
        fill: #ed846c;
      }

      .cls-17 {
        fill: #e7c3cb;
      }
    </style>
  </defs>
  <g id="Layer_1-2" data-name="Layer 1">
    <g>
      <path class="cls-11" d="M410.48,31.44c36.78,13.19,61.82,40.87,71.68,78.23,14,53.05-2.96,98.93-41,137.35-7.04,7.11-8.14,12.63-3.07,20.71,12.46,19.87,24.49,40.02,36.9,59.93,4.33,6.95,11.48,9.41,19.3,9.46,15.01.1,20,8.23,19.78,22.05-.37,24.05,0,48.12-.11,72.18-.09,20.95-1.95,22.84-22.51,22.89-36.95.08-74.01-1.76-110.8.64-25,1.63-37.26-8.2-47.94-29.27-22.17-43.72-47.39-85.91-70.71-129.07-9.05-16.75-24.48-12.95-36.49-9.89-17.34,4.42-7.9,21.19-9.56,32.59-1.77,12.19,5.05,17.36,17.12,18.31,10.44.83,16.45,6.67,16.31,18.19-.34,27.49-.31,55,0,82.49.13,11.72-4.91,16.18-16.69,16.13-71.01-.29-142.02-.29-213.03-.02-13.94.05-19.91-5.48-19.63-19.46.51-25.77.68-51.57-.02-77.33-.38-13.92,5.38-20.51,19.02-20.36,11.99.13,16.15-5.91,16.11-17.16-.22-57.29-.12-114.57-.16-171.86,0-12.14-2.65-21.84-18.3-20.71C3.65,128.42-.1,121.06.11,109.22c.43-24.05.08-48.12.09-72.18,0-21.71,1.27-23.02,23.87-23.03,92.37,0,184.74.12,277.11,0,5.39,0,64.04,1.18,109.31,17.41ZM166.46,37.45c-40.51,0-81.03.22-121.54-.14-11.2-.1-16.83,3.43-16.43,15.32.51,15.06.34,30.15.06,45.22-.18,9.72,3.71,14.63,13.91,14.25,14.06-.51,19.25,8.79,19.32,20.36.4,67.56.42,135.12,0,202.68-.07,11.48-5.16,20.89-19.3,20.31-10.1-.42-14.2,4.27-13.97,14.14.34,14.51.25,29.04.02,43.55-.15,9.65,3.82,14.44,13.97,14.42,57.39-.13,114.79-.1,172.19-.03,9.81.01,14.44-4.5,14.31-14.3-.18-13.96-.35-27.93.05-41.87.29-10.14-2.93-16.02-14.23-15.81-13.17.25-17.45-7.63-17.33-19.5.19-18.42.25-36.85-.02-55.28-.19-12.86,6.54-18.24,18.67-18.34,11.81-.1,23.65.4,35.44-.12,11.74-.52,18.98,5.18,24.18,14.78,24.1,44.49,48.18,88.99,72.41,133.4,4.85,8.89,9.93,17.31,22.52,17.16,34.32-.4,68.65-.35,102.97-.07,10.37.08,14.18-5.15,14.26-14.34.12-15.07-.03-30.15.03-45.23.03-7.08-2.36-12.68-10.38-12.07-10.07.75-15.53-4.73-20.18-12.18-17.38-27.86-34.73-55.75-52.2-83.56-4.47-7.11-4.37-12.78,2.09-19.24,11.24-11.26,22.84-21.99,33.22-34.37,35.73-42.59,22.27-104.26-14.6-134.65-30.32-25-67.36-27.91-104.36-31.32-51.63-4.76-103.37-2.66-155.07-3.17Z"/>
      <path class="cls-8" d="M166.46,37.1c51.7.53,103.44-1.58,155.07,3.19,37,3.41,74.04,6.33,104.36,31.37,36.86,30.44,50.32,92.22,14.6,134.88-10.39,12.4-21.98,23.16-33.22,34.43-6.45,6.47-6.56,12.15-2.09,19.27,17.47,27.85,34.82,55.79,52.2,83.7,4.65,7.46,10.11,12.95,20.18,12.2,8.02-.6,10.41,5,10.38,12.09-.06,15.1.09,30.2-.03,45.3-.08,9.21-3.89,14.44-14.26,14.36-34.32-.28-68.65-.32-102.97.07-12.6.15-17.67-8.28-22.52-17.19-24.23-44.49-48.31-89.06-72.41-133.63-5.2-9.62-12.44-15.32-24.18-14.81-11.79.52-23.63.02-35.44.12-12.13.1-18.86,5.49-18.67,18.37.27,18.45.21,36.91.02,55.37-.12,11.89,4.16,19.78,17.33,19.54,11.3-.21,14.53,5.68,14.23,15.83-.4,13.97-.23,27.96-.05,41.94.13,9.82-4.5,14.34-14.31,14.32-57.4-.06-114.79-.1-172.19.03-10.15.02-14.12-4.78-13.97-14.44.23-14.54.32-29.09-.02-43.62-.23-9.88,3.87-14.57,13.97-14.16,14.14.58,19.23-8.85,19.3-20.34.42-67.67.4-135.35,0-203.02-.07-11.59-5.26-20.9-19.32-20.39-10.2.37-14.09-4.54-13.91-14.28.28-15.1.45-30.21-.06-45.3-.4-11.91,5.23-15.45,16.43-15.35,40.51.36,81.03.14,121.54.13ZM197.65,153.94s-.1,0-.14,0c0,9.49-.03,18.99,0,28.48.09,19.26,2.58,21.87,22.46,22.32,20.22.47,40.38-.22,60.44-3.25,17.27-2.6,35.81-21.39,38.56-39.66,3.22-21.39-7.15-41.82-25.3-50.12-27.97-12.79-57.44-6.07-86.32-6.37-7.64-.08-9.59,6.79-9.67,13.41-.14,11.73-.04,23.45-.04,35.18Z"/>
      <path class="cls-11" d="M197.65,153.94c0-11.73-.1-23.46.04-35.18.08-6.61,2.02-13.49,9.67-13.41,28.88.3,58.35-6.41,86.32,6.37,18.15,8.3,28.52,28.72,25.3,50.12-2.75,18.27-21.29,37.06-38.56,39.66-20.06,3.02-40.22,3.71-60.44,3.25-19.88-.46-22.38-3.06-22.46-22.32-.04-9.49,0-18.99,0-28.48.05,0,.1,0,.14,0ZM247.99,181.68c8.32-.37,16,.66,22.76-1.34,10.55-3.13,21.69-6.74,23.17-20.8,1.14-10.82-.41-20.87-10.86-25.83-16.68-7.92-35.03-5.9-52.85-6.04-2.13-.02-5.76,2.74-6.2,4.75-3.24,14.77-4.85,30.41.47,44.28,3.7,9.66,16.19,3.06,23.51,4.98Z"/>
    </g>
    <g>
      <path class="cls-17" d="M197.66,393.92c.34-1.45.85-2.26,2.07-.59-.5.87-1.29.72-2.07.59Z"/>
      <g>
        <path class="cls-4" d="M305.14,229.99c5.68,8.46,9.9,17.47,18.09,23.57,18.72,13.96,29.4,32.54,31.41,55.82.83,9.59-1.64,18.85-4.23,28.55,7.34-5.44,14.56-11.05,22.04-16.29,16.22-11.37,32.61-22.47,50.95-30.3,9.07-3.87,18.37-5.99,28.34-5.79,18.62.38,29.5,16.88,22.19,34.05-4.39,10.32-12.71,16.61-22.27,21.34-22.32,11.05-44.91,21.57-67.17,32.72-15.42,7.72-30.33,16.36-44.22,26.71-6.45,4.81-13.69,8.07-21.93,8.34-15.51.52-21.84-8.01-20.64-22.88.25-3.13,1.24-6.21,1.95-9.3,1.91-8.23.57-12.06-6.85-16.34-7.03-4.05-14.77-6.48-22.72-8.58-1.12,6.03.33,11.82-1.41,17.53-3.28,10.76-9.4,15.41-20.27,13.49-3.89-.69-4.66-.14-4.62,3.65.24,25.04-8.41,46.88-24.19,66.12-13.51,16.47-32.28,21.17-49.29,12.09-9.52-5.08-14.53-13.91-18.63-23.3-7.36-16.89-10.42-34.87-12.8-52.96-3.37-25.66-3.91-51.64-8.52-77.17-.56-3.13-.32-7.97-4.13-8.39-4.45-.49-4.21,4.71-5.04,7.6-5.17,18.15-10.55,36.24-21.15,52.09-5.21,7.79-11.18,15.43-22.25,14.52-9.5-.78-15.26-7.41-20.22-14.37-9.42-13.2-13.15-28.67-15.87-44.33-7.64-44.14-3.05-87.74,6.26-131.09,6.41-29.84,14.18-59.25,27.29-87C93.14,62.2,119.33,31.25,153.17,6.65c4.41-3.21,9.33-5.22,14.62-6.29,7.96-1.6,12.7,2.1,13.29,10.2.57,7.85-2.46,14.78-5.79,21.53-12.1,24.51-23.6,49.3-33.99,74.58-6.98,17-20.51,23.37-37.67,23.9-3.62.11-5.65,1.08-7.51,4.21-17.32,29.28-27.72,60.99-34.08,94.25-3.89,20.31-5.21,40.74-3.45,61.29,1.32,15.43,3.62,30.75,9.36,45.31,2.18,5.54,4.04,12.74,10.58,13.21,6.65.48,9.4-6.55,12.1-11.78,7.19-13.94,11.43-29.08,17.08-43.64,2.74-7.06,6.03-13.85,11.81-19.07,6.72-6.07,13.53-5.28,18.62,2.26,5.96,8.83,7.43,19.1,9.12,29.25,5.09,30.62,7.52,61.6,12.22,92.27,1.94,12.68,4.21,25.44,10.61,36.93,2.78,4.99,6.43,9.14,11.82,11.28,9.05,3.59,16.12-.61,21.72-6.95,13.99-15.84,19.13-34.88,18.46-55.68-.22-6.94-1.44-13.74-3.83-20.35-2.94-8.16-6.79-14.48-15.51-18.71-22.66-10.99-33.93-30.94-34.42-55.3-.49-24.35,1.62-49,12.98-71.36,9.16-18.03,23.71-31.91,38.15-45.71,9.38-8.96,19.22-17.46,27.47-27.56,1.4-1.71,2.62-2.74,1.03-5.45-11.8-20.07-9.61-39.77,2.44-58.87,1.82-2.88,2.59-5.61,2.5-8.91-.36-12.82,1.08-25.44,4.69-37.77,4.13-14.15,9.27-17.09,23.2-12.92,4.9,1.47,10.2,2.83,14.24,5.73,8.91,6.38,18.34,5.71,28.32,4.56,25.08-2.88,48.71,1.19,69.78,16.04,2.61,1.84,5.58,1.83,8.56,2.06,8.73.68,17.28,2.42,25.68,4.86,4.67,1.36,6.94,4.02,6.95,9.51.02,13.4-2.82,26.06-8.73,37.92-2.88,5.79-.14,11.07.41,16.33,3.07,29.15-10.62,47.42-34.53,57.45-3.55,1.49-6.07,3.62-8.46,6.85-6.58,8.87-15.92,13.62-26.92,14.67-3.34.32-6.02.91-8.15,3.9-10.5,14.75-24.6,24.44-42.78,29.27ZM343.93,199.56c.75-.3,1.5-.76.91-1.63-.75-1.12-2.02-.89-3.18-.79-11.78-4.47-22.41-4.48-33.18,4.15-8.85,7.1-9.66,6.09-7.36,17.17,1.65,2.45-.63,8.66,5.4,6.86,14.72-4.38,27.61-11.79,36.6-24.79.27-.32.53-.65.8-.97ZM224.16,409.27c-.13.49-.27.98-.4,1.47-3.92,11.32-8.29,22.37-17.02,31.11-13.95,13.97-31.01,11.56-40.33-5.87-5.03-9.41-7.56-19.65-9.55-30.03-5.87-30.61-7.27-61.81-12.03-92.57-1.73-11.19-2.65-22.66-8.5-32.73-4.34-7.48-10.79-8.01-16.48-1.51-3.83,4.38-6.68,9.42-8.6,14.94-3.6,10.32-7.06,20.7-10.85,30.95-3.04,8.22-6.24,16.43-11.9,23.33-6.54,7.96-13.68,7.61-19.56-.78-2.54-3.62-4.43-7.55-5.75-11.73-10.79-34.05-10.95-68.67-5.41-103.58,3.75-23.67,10.08-46.64,18.59-69.02,5.48-10.65,10.06-21.78,16.75-31.64-1.08-1.83-3.62-.93-4.4-2.9,2.39-2.87,6.22-.55,8.84-2.5,2.77-.09,5.56.04,8.29-.3,12.1-1.51,23.27-5.27,28.9-17.13,10.96-23.08,21.36-46.44,31.99-69.68,4.94-8.85,10.34-17.56,10.62-28.12.16-5.95-2.99-8.48-8.72-7.08-4.47,1.09-8.57,3.17-12.29,5.93-28.76,21.33-53.16,46.79-69.72,78.65-31.19,60-44.93,124.4-44.72,191.76.07,22.36,3.17,44.53,11.59,65.56,3.58,8.95,8.08,17.38,16.27,23.11,6.54,4.58,12.3,4.47,18.7-.24,4.59-3.38,7.8-7.96,10.68-12.77,8.96-14.99,14.07-31.53,19.23-48.05.65-2.07,1.52-4.06,2.34-6.07,1.04-2.56,2.81-4.77,5.61-4.7,3.17.09,4.71,2.77,5.5,5.57.92,3.25,1.89,6.53,2.29,9.87,3.27,27.54,6.17,55.13,9.67,82.64,2.14,16.8,5.41,33.44,13.35,48.68,8.17,15.7,19.24,21.91,35.71,20.42.94.16,1.89.34,2.49-.71,1.72-.15,3.36-.53,4.73-1.67,2.91-.88,5.4-2.5,7.69-4.43,20.96-17.67,30.32-40.82,31.63-67.65.2-4.07,1.41-8.76-1.75-12.09-6.19-6.53-10.12-14.25-13.09-22.53-1.23-3.43-3.24-3.93-6.35-3.14,9.04,21.91,10.47,34.68,6.23,54.95-.09.77-.18,1.53-.27,2.3ZM214.58,310.87c-.89-26.29-1.84-52.58,4.72-78.41.62-2.43-.53-2.87-2.67-3.35-11.94-2.7-24.44,2.63-32.66,14.88-11.25,16.77-13.8,35.28-9.91,54.87,5.15,29.56,33.55,48.22,47.64,47.61-3.87-11.61-4.79-23.74-7.12-35.6ZM323.25,283.42c-.02-.9-.04-1.8-.05-2.7.06-.18.2-.39.15-.53-.12-.33-.33-.63-.51-.95-.32-10.58-3.06-20.59-9.02-29.26-8.55-12.43-17.39-24.58-18.1-41.04-4.26,2.06-7.54,3.96-11.04,5.25-3.28,1.21-4.4,2.99-4.42,6.57-.09,12.58-2.11,24.98-4.1,37.38-2.67,16.7-5.75,33.35-6.3,50.32-1.25,9.12-1.22,18.29-1.1,27.46.15,10.6-1.71,12.02,11.12,6.93,1.65-.65,3.07-1.87,4.69-2.61,1.29-.59,2.72-1.8,4.33-.03-2.81,4.21-7.37,6.03-11.83,8.62,8.93,3.98,17.41,7.48,24.27,13.79,2.64,5.21,2.66,10.49,1.05,16.08-.98,3.39-1.4,7.04-1.39,10.58.02,8.64,4.78,14.15,13.33,15.56,8.12,1.34,15.12-1.57,21.52-6.31,4.6-3.1,9.13-6.32,13.81-9.28,26.66-16.83,55.34-29.77,83.69-43.34,9.5-4.55,19.27-8.64,27.17-15.93,3.6-2.78,7.03-5.68,8.16-10.35-3.46,2.63-7.49,3.73-11.19,5.46-1.71-.11-3.6.92-5.56-.82,4.61-2.88,9.88-3.77,13.41-7.62,3.46-2.31,7.45-4.69,6.75-9.44-.85-5.76-3.66-10.77-8.53-14.39-2.97-2.2-4.69-2.83-5.66,1.99-.71,3.52-3.11,6.71-4.75,10.05-4.35,3.28-7.67,8.39-14.34,8.37,1.17-3.42,4.84-3.82,6.24-6.45,4.54-3.57,7.21-8.35,9.07-13.71,1-2.87.19-3.83-2.88-3.87-9.15-.12-17.8,2.09-26,5.78-37.13,16.72-68.59,41.55-98.16,69.06-2.11,1.96-3.38,5.16-7.09,5.67.37-3.32,2.71-4.94,3.73-7.27,3.04-3.09,5.78-6.56,9.17-9.2,11.12-8.69,15.39-20.63,16.96-33.99,3.76-24.72-13.2-52.93-25.53-58.45,4.06,14.86,4.71,29.41.16,43.9-2.26,3.06-2.4,7.55-7.08,10.28,1.65-9.96,6.47-18.42,5.67-27.91l-.06-.57c.69-.96.6-2,.29-3.06ZM267.42,160.72c-4.34-4.09-8.94-7.93-12.91-12.35-2.34-2.61-3.25-2.06-5.4.09-8.16,8.19-16.56,16.15-24.91,24.15-15.02,14.37-29.44,29.25-39.06,47.99-3.67,7.14-6.86,14.52-7.91,22.81.7-.13.97-.09,1.08-.21.54-.57,1.09-1.15,1.56-1.77,9.63-12.75,21.65-19.84,38.19-15.87,3.09.74,3.68-1.03,4.44-3.22,2.57-7.36,6.04-14.24,10.63-20.61,12.54-17.41,39.39-17.34,45.75,3.57-.1,5.28,1.14,7.11,6.7,3.94,14.58-8.31,29.47-16.06,44.24-24.04,2.62-.6,5.23-1.19,8.25-1.88-2.45-3.81-10.88-4.56-5.11-11.44.76-.91,2.35-2.71.88-4.25-1.32-1.38-2.99-.21-4.51.09-.78.15-1.63.09-2.36.35-4.66,1.69-7.4,1.21-5.94-4.8.29-1.2.71-3.01-.78-3.82-1.5-.81-2.52.67-3.5,1.5-3.99,3.37-8.2,6.07-13.53,7.1-17.56,3.39-35.05,7.19-52.62,10.5-4.43.83-8.72,3.33-15.1,1.95,6.16-4.03,11.81-5.34,17.4-6.79,8.75-1.67,17.5-3.34,27.61-5.28-5.13-3.03-9.1-5.38-13.08-7.73ZM265.94,357.77c.05-1.39.23-2.79.12-4.16-2.24-28.81.34-57.34,4.63-85.82,2.34-15.54,5.55-31.05,4.82-46.93.59-5.79-.71-11.17-3.73-16.27-.61,3.43-1.21,6.87-1.82,10.3-2.01,3.73-2.86,8.29-8.46,11.46,2.69-6.21,5.03-10.99,5.58-16.3.24-2.56.72-5.13.67-7.69-.06-3.16-.27-6.32-4.23-7.56-5.12-1.59-10.11-1.83-15.08.41-1.36.61-3.24.73-1.86,3.19,2.48,4.4,1.2,9.34,1.62,14.04-1.94,4.29-1.66,9.55-5.79,13.32-.21-1.51-.36-2.64-.52-3.77,1.87-4.68,2.96-9.51,2.71-14.58-.14-2.81-.09-6.56-2.74-7.36-2.08-.63-3.93,2.78-5.38,4.79-10.8,15.01-15.15,32.32-17.15,50.28-2.76,24.74-1.5,49.45,2.46,73.97,2.23,13.78,5.34,27.42,13.53,39.16,5.79,8.29,14.24,12.2,20.59,9.98,6.72-2.35,10.3-9.66,10.02-20.48ZM263.23,28.68c-5.78,13.23-5.32,27.35-6.37,41.43,3.57-.88,4.16-5.41,7.97-5.2-.15,3.33-2.83,5.15-4.58,7.48-11.13,14.84-18.6,30.77-14.51,49.95,3.64,17.07,14.75,28.66,28.56,38.29,7.38,5.14,14.78,8.83,24.17,4.11.77-1.18-2.41-3.05-.22-4.8,5.62,5.59,7.18,5.71,13.08,1.06.63-.49,1.21-1.05,1.87-1.5,2.71-1.91,5.26-5.78,8.66-4.28,3.68,1.62,1.63,6.07,1.99,9.3.04.35.34.67.52.99,2.55-.39,5.09-.97,7.65-1.13,6.04-.37,7.32,1.02,4.58,6.35-2.19,4.27-1.81,6.68,2.39,8.82,1.57.8,3.03,2.2,2.73,4.29-.33,2.22-2.48,2.38-4.07,3.03-1.27.52-2.78.51-4.01,1.09-1.07.5-2.63-.1-3.51,2.06,26.58,7.42,47.63,2.86,58.28-26.11,1.6,2.44.62,3.73.48,5.07-.13,1.23-1.2,2.58.38,3.83,17.25-7.56,29.82-19.14,32.63-38.73,1.75-12.21-.16-24.25-2.75-36.2-.55-2.54-2.19-5.25.44-7.65,1.03,2.44,2.05,4.89,3.33,7.92,4.65-11.06,8.4-21.68,7.72-33.34.45-3.09.72-6.04-3.26-7.17-8.52-2.43-17.2-3.82-27.05-4.94,4.75,5.68,9.59,10.01,10.8,16.88-25.05-33.36-59.54-38.34-97.41-34.29.15,2.75,3.25,3.37,2.29,6.02-3.26.5-5.53-1.57-7.95-3.14-9.56-6.19-19.41-11.8-30.53-14.74-8.23-2.17-11.09-1.07-14.31,5.27ZM323.96,259.7c.13.24.27.5.4.75.12-.13.37-.29.35-.39-.06-.27-.23-.52-.36-.78-.12.13-.25.26-.39.42Z"/>
        <path class="cls-9" d="M419.61,90.22c-2.63,2.4-.99,5.11-.44,7.65,2.59,11.95,4.5,23.99,2.75,36.2-2.81,19.59-15.38,31.17-32.63,38.73-1.59-1.25-.51-2.6-.38-3.83.14-1.34,1.12-2.62-.48-5.07-10.65,28.98-31.7,33.54-58.28,26.11.89-2.16,2.45-1.56,3.51-2.06,1.24-.58,2.74-.56,4.01-1.09,1.58-.65,3.74-.81,4.07-3.03.31-2.09-1.15-3.49-2.73-4.29-4.2-2.14-4.58-4.55-2.39-8.82,2.73-5.33,1.46-6.72-4.58-6.35-2.56.16-5.1.74-7.66,1.13-.18-.33-.48-.65-.52-1-.36-3.23,1.69-7.68-1.99-9.3-3.4-1.5-5.95,2.38-8.66,4.28-.65.46-1.24,1.01-1.87,1.5-5.91,4.65-7.46,4.53-13.08-1.06-2.2,1.76.99,3.62.22,4.8-9.4,4.72-16.8,1.03-24.17-4.11-13.82-9.63-24.92-21.22-28.56-38.29-4.09-19.17,3.39-35.11,14.51-49.95,1.75-2.34,4.43-4.15,4.58-7.48.31-.72.82-1.42.91-2.17,1.32-11.02-1.06-21.9-1.3-32.87,0-.4-.79-.79-1.2-1.19,3.22-6.33,6.09-7.44,14.31-5.27,11.12,2.93,20.96,8.55,30.53,14.74,2.42,1.56,4.69,3.64,7.95,3.14.97-2.65-2.14-3.27-2.29-6.02,37.88-4.05,72.36.93,97.41,34.29-1.21-6.87-6.05-11.2-10.8-16.88,9.84,1.11,18.52,2.51,27.05,4.94,3.98,1.13,3.71,4.09,3.26,7.17-3.68,8.47-7.37,16.95-11.05,25.42ZM325.16,99.13c-.29.12-.58.24-.87.37.14.08.39.25.4.23.19-.24.35-.51.51-.77,1.16,6.34,2.31,12.67,3.47,19.01,3.65-7.32.82-13.26-3.5-18.83ZM278.16,110.44c-.93,1.73-1.97,3.4-2.76,5.19-4.75,10.88-3.64,15.42,5.76,22.26,3.48,2.53,7.12,4.94,11.36,6.15,6.32,3.7,13.34,5.03,20.46,5.85,4.55.52,7.65-1.02,8.5-6.11,2.47-14.75,1.11-29.07-5.46-42.52-3.91-8.01-12.15-10.46-20.93-6.99-5.27,2.08-9.83,5.23-12.93,10.15-.44.13-.64.43-.59.89-1.66,1.37-2.71,3.14-3.42,5.14ZM387.46,127.25c-1.16,5.79-2.62,11.55-3.36,17.4-.39,3.02-1.88,6.75,2.02,9.01,7.23,2.65,19.82-2.54,23.13-10.13,4.63-10.62,5.03-21.71,1.21-32.63-2.87-8.2-9.59-8.97-14.82-2.01-4.11,5.47-6.21,11.9-8.17,18.36ZM390.71,107.22c-5.24,4.56-8.76,10.04-7.77,17.47,3.03-5.57,4.98-11.63,7.77-17.47Z"/>
        <path class="cls-12" d="M192.85,464.24c-16.47,1.49-27.53-4.72-35.71-20.42-7.93-15.24-11.21-31.88-13.35-48.68-3.5-27.51-6.4-55.1-9.67-82.64-.4-3.33-1.37-6.62-2.29-9.87-.79-2.8-2.33-5.48-5.5-5.57-2.8-.08-4.57,2.14-5.61,4.7-.82,2.01-1.69,4.01-2.34,6.07-5.16,16.52-10.27,33.06-19.23,48.05-2.88,4.82-6.09,9.39-10.68,12.77-6.4,4.72-12.16,4.82-18.7.24-8.19-5.73-12.68-14.15-16.27-23.11-8.41-21.03-11.52-43.21-11.59-65.56-.21-67.36,13.53-131.76,44.72-191.76,16.56-31.86,40.96-57.32,69.72-78.65,3.72-2.76,7.82-4.84,12.29-5.93,5.73-1.4,8.88,1.13,8.72,7.08-.28,10.56-5.68,19.27-10.62,28.12-1.93-3.35-3.18-.5-4.48.57-6.91,5.74-12.42,12.81-18.34,19.49-12.2,13.79-22.28,29.11-31.01,45.18-4.38,8.07-9.64,13.84-18.44,16.33-1.85.52-4.04.74-4.82,3.05-.49.33-1.17.54-1.44.99-6.51,10.96-9.76,23.12-12.88,35.32-.29,1.13-.09,2.38,1.02,3.21-8.52,22.38-14.84,45.36-18.59,69.02-5.54,34.91-5.38,69.52,5.41,103.58,1.33,4.19,3.22,8.11,5.75,11.73,5.88,8.39,13.02,8.75,19.56.78,5.66-6.89,8.86-15.1,11.9-23.33,3.79-10.25,7.25-20.63,10.85-30.95,1.93-5.52,4.78-10.56,8.6-14.94,5.68-6.5,12.14-5.97,16.48,1.51,5.84,10.07,6.77,21.54,8.5,32.73,4.76,30.76,6.16,61.96,12.03,92.57,1.99,10.37,4.52,20.62,9.55,30.03,9.32,17.43,26.38,19.84,40.33,5.87,8.73-8.74,13.09-19.79,17.02-31.11.1,1.59.5,3.23.26,4.77-2.67,16.51-8.24,31.58-21.83,42.45-1.38,1.1-2.34,2.1-2.11,3.91-1.37,1.15-3.01,1.52-4.73,1.67-1.46-2.01-2.09-1.04-2.49.71Z"/>
        <path class="cls-15" d="M275.5,220.86c.74,15.88-2.48,31.38-4.82,46.93-4.28,28.48-6.86,57.01-4.63,85.82.11,1.38-.07,2.77-.12,4.16-4.65,9.2-9.01,11.99-16.43,9.44-8.01-2.75-11.91-9.74-14.39-17.12-5.87-17.44-7.14-35.74-8.52-53.92-.83-10.92-.11-21.91,1.15-32.8,1.45-12.47,4.64-24.57,8.58-36.46.82-2.46,2.68-4.44,5.56-4.91.16,1.13.31,2.26.52,3.77,4.13-3.77,3.85-9.03,5.79-13.32,3.42-2.35,6.91-4.4,11.35-3.57,2.49.47,5.02.79,7.53,1.17-.55,5.31-2.89,10.09-5.58,16.3,5.6-3.17,6.44-7.73,8.46-11.46,4.89-.84,3.96,3.74,5.55,5.97ZM255.26,326.68c-.19-8.58-.69-17.13-3.17-25.43-1.15-3.85-2.19-8.45-7.21-8.18-4.45.24-5.66,4.45-6.56,8.24-2.53,10.67-2.05,21.38-.32,32.09.64,3.95,1.65,7.82,4,11.16,1.57,2.23,3.67,3.76,6.52,3.53,2.86-.24,3.84-2.58,4.64-4.87,1.86-5.35,2.25-10.91,2.11-16.53Z"/>
        <path class="cls-1" d="M252.89,173.72c-5.59,1.44-11.24,2.76-17.4,6.79,6.38,1.38,10.67-1.12,15.1-1.95,17.58-3.31,35.06-7.11,52.62-10.5,5.33-1.03,9.53-3.72,13.53-7.1.98-.83,2.01-2.31,3.5-1.5,1.49.81,1.07,2.62.78,3.82-1.46,6.01,1.27,6.49,5.94,4.8.73-.27,1.58-.2,2.36-.35,1.52-.3,3.19-1.47,4.51-.09,1.47,1.54-.12,3.34-.88,4.25-5.77,6.88,2.66,7.63,5.11,11.44-3.02.69-5.63,1.28-8.25,1.88-2.22-2.6-4.39-1.24-6.9-.25-11.38,4.49-22.21,10.3-34.12,13.59-3.62,1-8.17,2.26-9.92,6.75-6.36-20.91-33.2-20.98-45.75-3.57-4.59,6.37-8.06,13.24-10.63,20.61-.76,2.19-1.35,3.96-4.44,3.22-16.53-3.97-28.55,3.12-38.19,15.87-.47.63-1.01,1.21-1.56,1.77-.11.12-.38.08-1.08.21,1.05-8.29,4.24-15.67,7.91-22.81,9.62-18.74,24.04-33.61,39.06-47.99,8.36-8,16.75-15.96,24.91-24.15,2.14-2.15,3.06-2.7,5.4-.09,3.96,4.42,8.57,8.26,12.91,12.35-3.17,2.9-6.78,5.14-10.54,7.18-2.35,1.28-4.24,2.8-3.99,5.83Z"/>
        <path class="cls-6" d="M465.32,316.64c-3.53,3.84-8.8,4.74-13.41,7.62,1.96,1.74,3.85.71,5.56.82,3.28.23,3.11,2.59,3.04,4.9-7.9,7.29-17.66,11.38-27.17,15.93-28.35,13.58-57.03,26.52-83.69,43.34-4.69,2.96-9.21,6.18-13.81,9.28-1.19-.01-2.38,0-3.57-.04-4.34-.12-8.48-.26-8.63-6.36-.19-8,1.57-10.75,8.07-11.57.72,6.05,3.01,7.62,9.31,5.48,11.07-3.76,20.94-9.84,29.77-17.41,3.42-2.93,8.9-6.43,5.83-11.64-3.2-5.43-9.06-2.61-13.58-.88-10.18,3.89-18.89,10.21-26.9,17.53-.66-1.87-.35-3.57,1.15-4.86,6.65-5.72,13.34-11.39,20.02-17.08.4-.4.8-.8,1.2-1.19.51-.96,1.39-1.19,2.37-1.23,3.75,2.83,7.89,2.82,12.43,1.99-1.33-2.79-3.59-1.91-5.39-1.91-2.66,0-3.57-1.25-3.42-3.68,5.74-5.78,12.62-10.1,19.12-14.9,10.49-7.76,22.21-13.39,33.81-19.22,6.76-3.4,13.86-5.86,21.21-7.5,2.44-.54,5.84-1.8,6.4,2.73-1.4,2.63-5.07,3.02-6.24,6.45,6.68.01,9.99-5.09,14.34-8.37,8.03.2,11.99,4.04,12.19,11.79Z"/>
        <path class="cls-15" d="M323.03,287.04c.8,9.48-4.03,17.94-5.67,27.91,4.68-2.73,4.82-7.22,7.08-10.28.82.55,1.83.94,2.43,1.66,5.15,6.17,10.31,12.21,19.67,10.63,1.69-.28,2.28,1.36,3.27,2.26-1.56,13.37-5.83,25.31-16.96,33.99-3.39,2.64-6.13,6.11-9.17,9.2-7.44.9-14.88,1.7-22.35.2-6.86-6.31-15.34-9.81-24.27-13.79,4.46-2.59,9.02-4.42,11.83-8.62-1.61-1.76-3.03-.56-4.33.03-1.62.75-3.04,1.96-4.69,2.61-12.83,5.09-10.98,3.67-11.12-6.93-.13-9.17-.16-18.34,1.1-27.46,1.34-.36,2.66-.89,4.02-1.04,16.17-1.82,30.52-7.93,43.21-18.06,1.73-1.38,3.56-2.58,5.94-2.31Z"/>
        <path class="cls-9" d="M323.03,287.04c-2.38-.26-4.21.93-5.94,2.31-12.69,10.13-27.05,16.24-43.21,18.06-1.36.15-2.68.69-4.02,1.04.55-16.97,3.63-33.62,6.3-50.32,1.98-12.4,4-24.8,4.1-37.38.03-3.58,1.15-5.36,4.42-6.57,3.5-1.29,6.78-3.19,11.04-5.25.71,16.46,9.55,28.6,18.1,41.04,5.96,8.67,8.7,18.68,9.02,29.26-.06.18-.2.39-.15.53.12.33.33.64.5.95.02.9.04,1.8.05,2.7-.9.94-.76,1.98-.29,3.06l.06.57Z"/>
        <path class="cls-9" d="M174.05,298.87c-3.88-19.59-1.33-38.11,9.91-54.87,8.22-12.26,20.72-17.59,32.66-14.88,2.14.48,3.29.92,2.67,3.35-6.56,25.84-5.61,52.13-4.72,78.41-3.45-.83-6.89-1.69-10.35-2.48-8.48-1.92-17.15-3.26-24.42-8.62-1.75-1.3-3.8-.82-5.76-.91Z"/>
        <path class="cls-12" d="M301.34,362.62c7.46,1.5,14.91.7,22.35-.2-1.02,2.33-3.36,3.95-3.73,7.27,3.72-.51,4.98-3.7,7.09-5.67,29.57-27.5,61.03-52.34,98.16-69.06,8.2-3.69,16.85-5.9,26-5.78,3.08.04,3.88,1,2.88,3.87-1.86,5.36-4.53,10.14-9.07,13.71-.57-4.53-3.96-3.27-6.4-2.73-7.35,1.64-14.46,4.11-21.21,7.5-11.6,5.83-23.32,11.46-33.81,19.22-6.5,4.8-13.38,9.12-19.12,14.9-1.61.79-2.82,1.99-3.62,3.6-.98.03-1.86.27-2.37,1.23-.4.4-.8.8-1.2,1.19-6.68,5.69-13.37,11.36-20.02,17.08-1.5,1.29-1.81,2.99-1.15,4.86,0,0-.06.05-.06.05-4.89-.67-6.22,1.17-3.92,5.57-.14.43-.29.86-.43,1.29-6.5.82-8.26,3.57-8.07,11.57.15,6.1,4.29,6.24,8.63,6.36,1.19.03,2.38.03,3.57.04-6.4,4.75-13.4,7.65-21.52,6.31-8.55-1.41-13.31-6.91-13.33-15.56,0-3.53.42-7.19,1.39-10.58,1.61-5.59,1.59-10.87-1.05-16.08Z"/>
        <path class="cls-12" d="M241.89,222.01c-2.88.48-4.74,2.45-5.56,4.91-3.94,11.89-7.14,23.99-8.58,36.46-1.26,10.89-1.98,21.88-1.15,32.8,1.38,18.18,2.65,36.47,8.52,53.92,2.49,7.38,6.38,14.37,14.39,17.12,7.42,2.55,11.78-.24,16.43-9.44.28,10.81-3.3,18.13-10.02,20.48-6.35,2.22-14.8-1.69-20.59-9.98-8.19-11.74-11.31-25.38-13.53-39.16-3.96-24.53-5.22-49.23-2.46-73.97,2-17.95,6.36-35.27,17.15-50.28,1.44-2.01,3.3-5.41,5.38-4.79,2.65.8,2.6,4.55,2.74,7.36.25,5.07-.84,9.9-2.71,14.58Z"/>
        <path class="cls-15" d="M89.67,123.72c.78-2.31,2.98-2.53,4.82-3.05,8.8-2.5,14.06-8.26,18.44-16.33,8.73-16.07,18.81-31.39,31.01-45.18,5.92-6.69,11.42-13.75,18.34-19.49,1.29-1.07,2.54-3.92,4.48-.57-10.63,23.24-21.03,46.6-31.99,69.68-5.63,11.86-16.8,15.62-28.9,17.13-2.73.34-5.53.21-8.3.3-2.69-.65-6.09,1-7.89-2.48Z"/>
        <path class="cls-6" d="M174.05,298.87c1.95.09,4-.39,5.76.91,7.26,5.36,15.94,6.7,24.42,8.62,3.46.79,6.9,1.65,10.35,2.48,2.32,11.86,3.24,23.99,7.12,35.6-14.09.61-42.5-18.05-47.64-47.61Z"/>
        <path class="cls-17" d="M200.07,461.86c-.23-1.81.73-2.8,2.11-3.91,13.59-10.87,19.16-25.94,21.83-42.45.25-1.54-.16-3.18-.26-4.77.13-.49.27-.98.4-1.47,1.24-.63,1.19-1.41.27-2.3,4.23-20.27,2.8-33.04-6.23-54.95,3.11-.79,5.12-.3,6.35,3.14,2.97,8.28,6.91,16.01,13.09,22.53,3.16,3.33,1.95,8.02,1.75,12.09-1.31,26.83-10.67,49.98-31.63,67.65-2.29,1.93-4.78,3.55-7.69,4.43Z"/>
        <path class="cls-12" d="M349.81,319.22c-.99-.91-1.59-2.55-3.27-2.26-9.35,1.58-14.52-4.46-19.67-10.63-.61-.73-1.61-1.12-2.43-1.66,4.55-14.49,3.91-29.04-.16-43.9,12.33,5.52,29.29,33.74,25.53,58.45Z"/>
        <path class="cls-1" d="M301.13,218.45c-2.3-11.08-1.49-10.07,7.36-17.17,10.76-8.63,21.39-8.62,33.18-4.15.18,1.35.92,2.17,2.26,2.43-.27.32-.53.65-.8.97-3.27-.35-5.62,1.33-7.88,3.4-9.65,8.86-21.35,12.97-34.13,14.52Z"/>
        <path class="cls-17" d="M278.86,205.29c1.75-4.49,6.3-5.75,9.92-6.75,11.91-3.29,22.74-9.11,34.12-13.59,2.51-.99,4.68-2.35,6.9.25-14.77,7.98-29.66,15.73-44.24,24.04-5.56,3.17-6.8,1.34-6.7-3.94Z"/>
        <path class="cls-12" d="M267.08,210.06c-2.51-.39-5.03-.71-7.53-1.17-4.44-.83-7.93,1.22-11.35,3.57-.41-4.7.86-9.64-1.62-14.04-1.39-2.46.5-2.58,1.86-3.19,4.97-2.24,9.96-2,15.08-.41,3.96,1.23,4.17,4.4,4.23,7.56.05,2.56-.43,5.13-.67,7.69Z"/>
        <path class="cls-17" d="M301.13,218.45c12.78-1.55,24.47-5.66,34.13-14.52,2.26-2.07,4.61-3.75,7.88-3.4-8.99,13-21.88,20.4-36.6,24.79-6.03,1.8-3.75-4.41-5.4-6.86Z"/>
        <path class="cls-17" d="M263.23,28.68c.42.39,1.2.78,1.2,1.19.24,10.97,2.62,21.85,1.3,32.87-.09.75-.59,1.45-.91,2.17-3.8-.22-4.39,4.32-7.97,5.2,1.05-14.07.59-28.2,6.37-41.43Z"/>
        <path class="cls-12" d="M465.32,316.64c-.19-7.75-4.16-11.59-12.19-11.79,1.64-3.34,4.04-6.52,4.75-10.05.97-4.83,2.69-4.2,5.66-1.99,4.87,3.62,7.69,8.63,8.53,14.39.7,4.75-3.29,7.13-6.75,9.44Z"/>
        <path class="cls-3" d="M89.67,123.72c1.8,3.47,5.2,1.83,7.89,2.48-2.61,1.95-6.44-.37-8.84,2.5.78,1.97,3.32,1.07,4.4,2.9-6.69,9.86-11.27,20.99-16.75,31.64-1.11-.82-1.31-2.07-1.02-3.21,3.12-12.2,6.37-24.36,12.88-35.32.27-.45.95-.67,1.44-.99Z"/>
        <path class="cls-17" d="M252.89,173.72c-.25-3.02,1.64-4.55,3.99-5.83,3.75-2.03,7.37-4.28,10.54-7.18,3.98,2.35,7.95,4.7,13.08,7.73-10.11,1.93-18.86,3.6-27.61,5.28Z"/>
        <path class="cls-3" d="M419.61,90.22c3.68-8.47,7.37-16.95,11.05-25.42.67,11.66-3.08,22.28-7.72,33.34-1.27-3.03-2.3-5.47-3.33-7.92Z"/>
        <path class="cls-3" d="M275.5,220.86c-1.59-2.23-.67-6.8-5.55-5.97.61-3.43,1.21-6.87,1.82-10.3,3.03,5.1,4.33,10.48,3.73,16.27Z"/>
        <path class="cls-3" d="M460.51,329.97c.07-2.3.24-4.67-3.04-4.9,3.7-1.73,7.74-2.83,11.19-5.46-1.13,4.67-4.55,7.58-8.16,10.35Z"/>
        <path class="cls-17" d="M343.93,199.56c-1.34-.26-2.08-1.08-2.26-2.43,1.15-.1,2.42-.33,3.18.79.58.87-.17,1.33-.91,1.63Z"/>
        <path class="cls-15" d="M322.97,286.47c-.48-1.07-.61-2.11.29-3.06.31,1.06.4,2.09-.29,3.06Z"/>
        <path class="cls-12" d="M224.43,406.97c.92.89.97,1.67-.27,2.3.09-.77.18-1.53.27-2.3Z"/>
        <path class="cls-12" d="M323.96,259.7c.15-.16.27-.29.39-.42.13.26.3.51.36.78.02.1-.22.26-.35.39-.14-.25-.27-.51-.4-.75Z"/>
        <path class="cls-15" d="M323.2,280.71c-.17-.32-.39-.62-.5-.95-.05-.14.09-.35.15-.53.18.32.39.62.51.95.05.14-.09.35-.15.53Z"/>
        <path class="cls-4" d="M282.17,104.42c3.11-4.92,7.67-8.07,12.93-10.15,8.78-3.47,17.02-1.02,20.93,6.99,6.57,13.46,7.92,27.77,5.46,42.52-.85,5.09-3.95,6.63-8.5,6.11-7.13-.82-14.14-2.15-20.46-5.85,1.85-1.21,3.92-1.32,6.04-1.23,4.21,1.01,8.4,2.08,12.62,3.01,6.45,1.43,7.31.78,7.7-5.66.7-11.77-.78-23.25-4.89-34.34-.54-3.35-.68-7.32-5.74-3.74-2.25-5.54-6.34-5.72-11.24-4.01-4.86,1.69-8.41,5.01-11.66,8.78-1.29-.51-1.52-2.41-3.18-2.44Z"/>
        <path class="cls-4" d="M387.46,127.25c1.96-6.46,4.06-12.89,8.17-18.36,5.23-6.96,11.96-6.18,14.82,2.01,3.82,10.92,3.42,22.01-1.21,32.63-3.31,7.59-15.9,12.78-23.13,10.13.54-1.09,1.61-1.16,2.61-1.37,6.24-2.52,11.67-13.81,10.36-21.56,2.59-4.52,1.6-9.18.52-13.83-.26-1.12-.5-2.6-1.89-2.78-1.48-.2-1.67,1.35-2.3,2.31-2.51,3.78-2.61,8.66-5.61,12.21-.47-.99-1.33-1.31-2.35-1.39ZM397.51,148.91c5.46-.3,8.33-3.52,9.84-7.77,2.91-8.2,3.78-16.65,1.41-25.19-.69-2.5-1.67-4.88-3.74-6.65-1.56-1.34-2.96-.64-4.33.22-1.54.97-.5,1.87.07,2.92,6.99,12.73,1.82,24.33-3.25,36.48Z"/>
        <path class="cls-5" d="M282.17,104.42c1.66.03,1.89,1.93,3.18,2.44-.02.36-.05.71-.1,1.06-12.88,13.33-11.25,23.66,4.75,30.92,2.68,1.21,4.65,1.28,6.93-.84,9.23-8.58,13.8-18.78,11.52-31.53-.07-1.46-.14-2.93-.21-4.39,5.06-3.58,5.2.39,5.74,3.74-2.04.65-1.05,2.34-1.01,3.48.45,12.43-3.78,22.83-13.14,31.09-.74.66-1.57,1.22-1.28,2.41-2.12-.1-4.19.02-6.04,1.23-4.24-1.21-7.88-3.62-11.36-6.15-9.4-6.83-10.52-11.38-5.76-22.26.78-1.79,1.83-3.46,2.76-5.19,3.32-.26,3.7-2.48,3.42-5.14-.05-.46.15-.75.59-.89Z"/>
        <path class="cls-5" d="M387.46,127.25c1.01.07,1.88.39,2.35,1.39-.05.36.02.69.22,1-.8,3.62-1.92,7.21-2.33,10.88-.43,3.93-2.35,8.13,1.03,11.78-1,.21-2.07.28-2.61,1.37-3.9-2.25-2.4-5.99-2.02-9.01.75-5.85,2.2-11.61,3.36-17.4Z"/>
        <path class="cls-13" d="M325.17,99.07c4.31,5.63,7.14,11.57,3.49,18.89-1.16-6.34-2.31-12.67-3.47-19.01l-.02.12Z"/>
        <path class="cls-4" d="M390.71,107.22c-2.8,5.84-4.74,11.9-7.77,17.47-.99-7.42,2.53-12.91,7.77-17.47Z"/>
        <path class="cls-4" d="M281.58,105.31c.28,2.66-.1,4.88-3.42,5.14.71-2,1.76-3.77,3.42-5.14Z"/>
        <path class="cls-13" d="M325.19,98.95c-.16.26-.32.53-.51.77-.01.01-.26-.15-.4-.23.29-.12.58-.24.88-.39,0-.03.03-.15.03-.15Z"/>
        <path class="cls-13" d="M255.26,326.68c.14,5.63-.25,11.18-2.11,16.53-.79,2.29-1.78,4.63-4.64,4.87-2.85.24-4.95-1.3-6.52-3.53-2.35-3.34-3.36-7.21-4-11.16-1.73-10.71-2.21-21.42.32-32.09.9-3.78,2.11-8,6.56-8.24,5.02-.27,6.06,4.32,7.21,8.18,2.48,8.3,2.98,16.85,3.17,25.43ZM244.38,339.82l-.02-.03c.25,2.25,1.56,3.91,3.7,3.99,2.23.09,2.83-2.31,2.99-3.88,1.41-13.12,1.19-26.16-2.6-38.94-.44-1.48-1.19-3.2-3.11-3.2-2.23,0-2.91,1.96-3.38,3.62-2.13,7.39-1.37,14.98-1.18,22.51.14,5.51.2,11.12,3.61,15.92Z"/>
        <path class="cls-13" d="M331.71,380.54c.14-.43.29-.86.43-1.29,1.31-1.86,2.62-3.71,3.92-5.57,0,0,.06-.05.06-.05,8.01-7.32,16.72-13.64,26.9-17.53,4.52-1.73,10.38-4.54,13.58.88,3.07,5.21-2.41,8.7-5.83,11.64-8.83,7.57-18.69,13.65-29.77,17.41-6.3,2.14-8.59.56-9.31-5.48ZM350.06,368.39c-.47.38-.94.75-1.41,1.13v-.12c-3.21,1.45-5.93,3.56-8.29,6.16-.46.36-.99.67-1.37,1.1-1.5,1.75-4.71,3.47-3.26,5.7,1.36,2.09,4.38.28,6.56-.59,9.1-3.66,17.46-8.57,24.87-15.03,2.07-1.8,5.54-3.77,4.31-6.45-1.15-2.5-4.58-.26-7.01-.02l-1.43.8.08-.11c-2.76.57-5.27,1.61-7.23,3.73l.09-.06c-.99.14-1.89.43-2.39,1.4l.04-.04c-1.5.38-2.8,1.05-3.63,2.43l.05-.02Z"/>
        <path class="cls-17" d="M360.87,349.26c.81-1.6,2.01-2.81,3.62-3.6-.15,2.42.76,3.68,3.42,3.67,1.79,0,4.06-.88,5.39,1.91-4.54.83-8.68.84-12.43-1.99Z"/>
        <path class="cls-17" d="M357.3,351.68c.4-.4.8-.8,1.2-1.19-.4.4-.8.8-1.2,1.19Z"/>
        <path class="cls-6" d="M336.07,373.68c-1.31,1.86-2.62,3.71-3.92,5.57-2.3-4.4-.96-6.24,3.92-5.57Z"/>
        <path class="cls-7" d="M308.25,102.09c.07,1.46.14,2.93.21,4.39-.69,1.63-1.28,3.32-2.09,4.88-3.07,5.91-10.13,10.03-15.58,8.42-5.9-1.74-4.68-7.42-5.53-11.86.05-.35.08-.71.1-1.06,3.25-3.78,6.8-7.09,11.66-8.78,4.9-1.7,8.99-1.53,11.24,4.01Z"/>
        <path class="cls-7" d="M298.57,142.81c-.29-1.19.54-1.75,1.28-2.41,9.36-8.26,13.59-18.66,13.14-31.09-.04-1.14-1.03-2.83,1.01-3.48,4.11,11.09,5.59,22.56,4.89,34.34-.38,6.44-1.25,7.09-7.7,5.66-4.22-.94-8.41-2-12.62-3.01Z"/>
        <path class="cls-7" d="M397.51,148.91c5.07-12.15,10.25-23.75,3.25-36.48-.58-1.05-1.62-1.95-.07-2.92,1.37-.86,2.78-1.57,4.33-.22,2.06,1.78,3.04,4.16,3.74,6.65,2.37,8.54,1.5,16.99-1.41,25.19-1.51,4.26-4.38,7.47-9.84,7.77Z"/>
        <path class="cls-2" d="M388.73,152.28c-3.38-3.65-1.46-7.85-1.03-11.78.4-3.67,1.52-7.25,2.33-10.88,2.75,2.56,5.69,3.62,9.06,1.1,1.3,7.74-4.12,19.03-10.36,21.56Z"/>
        <path class="cls-7" d="M399.09,130.73c-3.37,2.52-6.31,1.46-9.06-1.1-.2-.3-.27-.64-.22-1,3-3.55,3.1-8.43,5.61-12.21.64-.96.83-2.5,2.3-2.31,1.39.18,1.63,1.66,1.89,2.78,1.07,4.64,2.07,9.31-.52,13.83Z"/>
        <path class="cls-2" d="M285.25,107.92c.85,4.44-.36,10.12,5.53,11.86,5.44,1.61,12.51-2.51,15.58-8.42.81-1.57,1.4-3.25,2.09-4.88,2.28,12.75-2.29,22.94-11.52,31.53-2.28,2.12-4.25,2.05-6.93.84-16-7.26-17.63-17.59-4.75-30.92Z"/>
        <path class="cls-14" d="M244.38,339.82c-3.4-4.81-3.47-10.41-3.61-15.92-.19-7.53-.95-15.11,1.18-22.51.48-1.66,1.16-3.62,3.38-3.62,1.92,0,2.67,1.72,3.11,3.2,3.79,12.77,4.01,25.82,2.6,38.94-.17,1.57-.77,3.97-2.99,3.88-2.14-.09-3.45-1.74-3.7-3.99,3.41.86,4.72-.07,5.12-3.96.74-7.13.05-14.17-.28-21.23-.16-3.5-1.27-6.97-2.12-10.41-.26-1.06-.84-2.44-2.39-2.03-1.08.29-1.35,1.41-1.36,2.43-.07,4.36-.98,8.65-1.47,12.95-.88,7.74,2.96,14.73,2.52,22.27Z"/>
        <path class="cls-10" d="M364.47,360.27c2.43-.25,5.86-2.48,7.01.02,1.23,2.68-2.24,4.65-4.31,6.45-7.41,6.46-15.77,11.37-24.87,15.03-2.18.87-5.2,2.68-6.56.59-1.46-2.23,1.76-3.96,3.26-5.7.37-.44.91-.74,1.37-1.1,4.08-.28,7.46-1.5,8.28-6.16,0,0,0,.12,0,.12.47-.38.94-.75,1.41-1.13,0,0-.05.02-.05.02,1.85.14,3.6.14,3.63-2.43,0,0-.04.04-.04.04,1.09.04,2.06-.14,2.39-1.4,0,0-.09.06-.09.06,3.28.43,6.46.69,7.23-3.73,0,0-.08.11-.08.12.48-.27.95-.53,1.42-.8Z"/>
        <path class="cls-14" d="M348.64,369.39c-.82,4.66-4.21,5.88-8.28,6.16,2.36-2.6,5.07-4.71,8.28-6.16Z"/>
        <path class="cls-14" d="M363.12,360.96c-.77,4.42-3.95,4.16-7.23,3.73,1.96-2.12,4.47-3.16,7.23-3.73Z"/>
        <path class="cls-14" d="M353.64,365.98c-.03,2.58-1.78,2.57-3.63,2.43.83-1.38,2.13-2.06,3.63-2.43Z"/>
        <path class="cls-14" d="M355.99,364.63c-.33,1.26-1.3,1.44-2.39,1.4.5-.97,1.4-1.26,2.39-1.4Z"/>
        <path class="cls-14" d="M364.47,360.27c-.47.27-.95.53-1.42.8.47-.27.95-.53,1.42-.8Z"/>
        <path class="cls-14" d="M350.06,368.39c-.47.38-.94.75-1.41,1.13.47-.38.94-.75,1.41-1.13Z"/>
        <path class="cls-16" d="M244.38,339.82c.44-7.54-3.39-14.53-2.52-22.27.49-4.3,1.4-8.59,1.47-12.95.02-1.02.28-2.14,1.36-2.43,1.55-.41,2.13.96,2.39,2.03.85,3.44,1.96,6.91,2.12,10.41.33,7.06,1.02,14.1.28,21.23-.41,3.89-1.72,4.82-5.12,3.96,0,0,.02.03.02.03Z"/>
      </g>
    </g>
  </g>
</svg>